<?xml version="1.0" encoding="UTF-8" standalone="no"?>
<svg
   xmlns:dc="http://purl.org/dc/elements/1.1/"
   xmlns:cc="http://creativecommons.org/ns#"
   xmlns:rdf="http://www.w3.org/1999/02/22-rdf-syntax-ns#"
   xmlns:svg="http://www.w3.org/2000/svg"
   xmlns="http://www.w3.org/2000/svg"
   xmlns:sodipodi="http://sodipodi.sourceforge.net/DTD/sodipodi-0.dtd"
   xmlns:inkscape="http://www.inkscape.org/namespaces/inkscape"
   id="svg2"
   xml:space="preserve"
   height="200"
   width="320"
   version="1.1"
   viewBox="0 0 320.00105 200.0002"
   inkscape:version="0.91 r13725"
   sodipodi:docname="hokusai_simple.svg"><defs
     id="defs114" /><sodipodi:namedview
     pagecolor="#7e7e7e"
     bordercolor="#666666"
     borderopacity="1"
     objecttolerance="10"
     gridtolerance="10"
     guidetolerance="10"
     inkscape:pageopacity="0"
     inkscape:pageshadow="2"
     inkscape:window-width="1280"
     inkscape:window-height="753"
     id="namedview112"
     showgrid="false"
     inkscape:zoom="1.8625"
     inkscape:cx="106.3457"
     inkscape:cy="101.12751"
     inkscape:window-x="-4"
     inkscape:window-y="-4"
     inkscape:window-maximized="1"
     inkscape:current-layer="svg2" /><metadata
     id="metadata820"><rdf:RDF><cc:Work
         rdf:about=""><dc:format>image/svg+xml</dc:format><dc:type
           rdf:resource="http://purl.org/dc/dcmitype/StillImage" /><dc:title></dc:title></cc:Work></rdf:RDF></metadata><path
     id="path14"
     d="M 158.39998,141.82513 C 125.30901,99.061081 155.57411,72.272713 165.91722,55.501739 99.379997,-28.902711 -31.076458,59.218996 1.2698778,215.20637 110.83667,219.46012 246.46199,239.94048 158.39998,141.82513 Z"
     inkscape:connector-curvature="0"
     style="fill:#000080"
     sodipodi:nodetypes="cccc" /><path
     id="path338"
     d="M 80.367543,135.46493 53.513999,148.09215 C -13.671309,68.495882 29.024656,113.9335 80.367543,135.46493 Z"
     inkscape:connector-curvature="0"
     style="fill:#e6c25a"
     sodipodi:nodetypes="ccc" /><g
     transform="matrix(0.54222,0,0,-0.54222,162.4113,148.87024)"
     id="g46"><path
       sodipodi:nodetypes="cccc"
       inkscape:connector-curvature="0"
       style="fill:#000080;fill-opacity:1"
       d="M 29.097749,6.182584 C 44.037013,14.521597 66.58767,26.238709 77.765,41.21375 c 15.48,-3.8072 28.15568,-27.177215 40.97168,-36.8372152 0,0 -18.838543,-27.4052988 -89.638931,1.8060492 z"
       id="path48" /></g><g
     transform="matrix(0.54222,0,0,-0.54222,165.54533,149.20641)"
     id="g50" /><g
     transform="matrix(0.54222,0,0,-0.54222,244.82874,139.28379)"
     id="g54"><path
       style="fill:#000080;fill-opacity:1"
       sodipodi:nodetypes="ccc"
       inkscape:connector-curvature="0"
       id="path56"
       transform="matrix(1.8442758,0,0,-1.8442758,-451.53026,256.8773)"
       d="m 235.41995,144.13083 c 4.99558,-0.58367 15.10431,-2.19527 15.77735,-5.625 -2.75296,-4.61306 -19.81647,-0.88316 -15.77735,5.625 z" /></g><g
     transform="matrix(0.54222,0,0,-0.54222,246.68313,140.42787)"
     id="g58" /><g
     transform="matrix(0.54222,0,0,-0.54222,244.19976,141.94609)"
     id="g62" /><g
     transform="matrix(0.54222,0,0,-0.54222,245.97824,140.46583)"
     id="g66" /><g
     transform="matrix(0.54222,0,0,-0.54222,235.42122,144.13123)"
     id="g70" /><g
     transform="matrix(0.54222,0,0,-0.54222,235.71944,143.90892)"
     id="g74" /><g
     transform="matrix(0.54222,0,0,-0.54222,240.35,142.65097)"
     id="g78" /><g
     transform="matrix(0.54222,0,0,-0.54222,289.26366,107.69405)"
     id="g82"><path
       sodipodi:nodetypes="ccccccccccccc"
       inkscape:connector-curvature="0"
       id="path84"
       transform="matrix(1.8442758,0,0,-1.8442758,-533.48026,198.6173)"
       d="m 287.70703,100.76953 c -2.02715,3.1932 -3.79602,5.78894 -6.40625,8.99805 1.17237,-0.0148 1.77836,0.0518 2.44336,-0.85156 l 0.51953,0.88867 c -6.665,8.697 -21.60933,13.63844 -24.91797,19.77734 6.43012,11.74071 28.38066,-11.52505 31.90694,-19.8417 l -3.5085,-6.45322 c 1.05575,-1.25854 0.82832,-2.18759 -0.0371,-2.51758 z m -0.66601,3.44336 c 0.88777,1.40315 1.4218,1.73187 2.22265,3.48047 -0.85567,1.17412 -2.1982,1.10525 -3.66797,1.55664 l -0.92382,-1.44531 z"
       style="fill:#000080;fill-opacity:1" /></g><g
     transform="matrix(0.54222,0,0,-0.54222,266.26811,123.47265)"
     id="g86" /><g
     transform="matrix(0.54222,0,0,-0.54222,273.30613,115.36104)"
     id="g90" /><g
     transform="matrix(0.54222,0,0,-0.54222,277.26976,112.87767)"
     id="g94" /><g
     transform="matrix(0.54222,0,0,-0.54222,259.94041,132.87475)"
     id="g98" /><path
     id="path104"
     d="M 178.56674,139.20571 C 244.6742,158.81835 269.18255,131.3061 297.09603,99.380191 285.32024,134.72503 239.86256,160.46349 193.86215,149.67655 Z"
     inkscape:connector-curvature="0"
     style="fill:#e6c25a"
     sodipodi:nodetypes="cccc" /><g
     transform="matrix(0.54222,0,0,-0.54222,272.6392,124.91496)"
     id="g118"><path
       sodipodi:nodetypes="ccc"
       style="fill:#ffffff"
       inkscape:connector-curvature="0"
       d="M 0,0 C -3.5994619,-3.1789502 -7.1399553,1.4725715 -5.326,4.304 -1.2990222,7.2603151 1.6683589,3.9809586 0,0"
       id="path120" /></g><g
     transform="matrix(0.54222,0,0,-0.54222,277.86078,120.76697)"
     id="g122"><path
       style="fill:#ffffff"
       inkscape:connector-curvature="0"
       d="M 0,0 C -2.2189,-2.4709 -7.5642,-1.2385 -7.034,1.981 -4.5077,6.0318 0.5175,5.1188 0,0"
       id="path124" /></g><g
     transform="matrix(0.54222,0,0,-0.54222,276.45101,120.36031)"
     id="g130" /><g
     transform="matrix(0.54222,0,0,-0.54222,272.6392,122.3611)"
     id="g134" /><g
     transform="matrix(0.54222,0,0,-0.54222,267.53149,129.02498)"
     id="g142"><path
       sodipodi:nodetypes="ccc"
       style="fill:#ffffff"
       inkscape:connector-curvature="0"
       d="M 0,0 C -3.7260646,-2.6494913 -7.1143879,2.3369152 -4.645,4.644 -0.78093792,6.6330345 1.7991331,2.5275496 0,0"
       id="path144" /></g><g
     transform="matrix(0.54222,0,0,-0.54222,262.53222,132.50604)"
     id="g150"><path
       sodipodi:nodetypes="ccc"
       style="fill:#ffffff"
       inkscape:connector-curvature="0"
       d="M 0,0 C -3.3682058,-2.9941405 -7.2339986,1.7794529 -5.464,4.097 -1.7782151,7.4981546 1.5452517,3.2894992 0,0"
       id="path152" /></g><g
     transform="matrix(0.54222,0,0,-0.54222,261.68093,132.24577)"
     id="g158" /><g
     transform="matrix(0.54222,0,0,-0.54222,262.21231,133.09706)"
     id="g162" /><g
     transform="matrix(0.54222,0,0,-0.54222,271.48969,130.6896)"
     id="g166" /><g
     transform="matrix(0.54222,0,0,-0.54222,272.26507,130.80347)"
     id="g170" /><g
     transform="matrix(0.54222,0,0,-0.54222,275.0087,125.76082)"
     id="g174" /><g
     transform="matrix(0.54222,0,0,-0.54222,282.23107,118.35952)"
     id="g178" /><path
     id="path208"
     d="m 222.86883,199.79012 c -52.65582,12.67637 -94.91015,-30.90001 -89.40047,-41.33479 26.39743,40.21429 85.29688,14.71257 114.56054,30.45659 z"
     inkscape:connector-curvature="0"
     style="fill:#e6c25a"
     sodipodi:nodetypes="cccc" /><path
     d="m 227.24095,190.82461 c 12.13457,-4.67028 26.59375,1.42828 37.25604,-5.68503 -6.95971,-16.47161 -56.36752,0.35626 -37.25604,5.68503 z"
     id="path244"
     style="fill:#000080"
     inkscape:connector-curvature="0"
     sodipodi:nodetypes="ccc" /><path
     sodipodi:nodetypes="ccccccccccccccc"
     inkscape:connector-curvature="0"
     id="path182"
     d="M 119.34413,1.2732188 C -11.107571,1.4434921 -32.900971,94.80211 0.04296868,210.7485 l -0.0019531,0.004 C 36.28083,211.2404 54.317805,171.90133 88.390908,159.55498 140.69887,232.55947 283.76467,265.64707 319.97954,137.28733 294.35422,165.93601 184.66692,242.43175 129.80511,163.9671 c -0.0112,-15.68899 35.53398,23.01903 51.83219,15.82036 -17.52104,-16.24277 -43.3745,-26.18807 -1.34375,-19.07037 94.83849,11.29558 134.61775,-28.81755 140.62936,-86.16434 -64.96695,101.82508 -124.6712,93.00629 -210.696,34.2755 C 80.06864,145.11903 -13.0573,186.50261 9.4941708,97.388761 19.84515,101.58012 83.724735,97.761382 115.45545,82.15629 -9.4123911,13.26724 179.22572,20.231033 169.37359,71.666023 c -0.76019,7.581276 5.70736,7.345278 11.07426,7.248069 20.33324,-13.6043 23.24944,-76.1041675 -61.10372,-77.6408732 z"
     style="fill:#ffffff" /><g
     transform="matrix(0.54222,0,0,-0.54222,241.9387,182.86743)"
     id="g210" /><g
     transform="matrix(0.54222,0,0,-0.54222,248.79236,181.86432)"
     id="g214" /><g
     transform="matrix(0.54222,0,0,-0.54222,252.1975,180.60637)"
     id="g222" /><g
     transform="matrix(0.54222,0,0,-0.54222,259.12165,183.01383)"
     id="g230" /><g
     transform="matrix(0.54222,0,0,-0.54222,261.60502,182.2005)"
     id="g234" /><g
     transform="matrix(0.54222,0,0,-0.54222,247.23619,189.49336)"
     id="g246" /><g
     transform="matrix(0.54222,0,0,-0.54222,228.27476,190.01389)"
     id="g266"><path
       sodipodi:nodetypes="ccc"
       style="fill:#ffffff"
       inkscape:connector-curvature="0"
       d="M 0,0 C -3.4480402,-2.538181 -6.5741879,3.1763757 -4.4736242,5.5293288 -0.45148896,9.7430786 6.2166407,4.9658902 0,0 Z"
       id="path268" /></g><g
     transform="matrix(0.54222,0,0,-0.54222,234.46149,189.34696)"
     id="g270"><path
       sodipodi:nodetypes="ccc"
       style="fill:#ffffff"
       inkscape:connector-curvature="0"
       d="M 3.6687557e-8,0.13128523 C -12.802913,1.5790318 -0.90947395,13.190195 2.8161878,6.4025201 3.7028522,4.1889462 3.3696543,0.17504697 3.6687557e-8,0.13128523 Z"
       id="path272" /></g><g
     transform="matrix(0.54222,0,0,-0.54222,247.56695,188.86438)"
     id="g274"><path
       sodipodi:nodetypes="ccc"
       style="fill:#ffffff"
       inkscape:connector-curvature="0"
       d="M 0,0 C -4.3525,0.40507 -6.2667046,6.6289591 -2.7929061,8.3481879 4.8727281,11.472174 4.5857792,0.16588841 0,0"
       id="path276" /></g><g
     transform="matrix(0.54222,0,0,-0.54222,241.60795,189.60722)"
     id="g278"><path
       sodipodi:nodetypes="ccc"
       style="fill:#ffffff"
       inkscape:connector-curvature="0"
       d="M 0,0 C -7.512282,0.52187087 -4.4577478,11.001304 0.56318789,9.1782818 3.8358648,7.0549155 3.190433,0.47225613 0,0"
       id="path280" /></g><g
     transform="matrix(0.54222,0,0,-0.54222,60.614912,145.3187)"
     id="g286" /><g
     transform="matrix(0.54222,0,0,-0.54222,61.612597,141.0948)"
     id="g306" /><g
     transform="matrix(0.54222,0,0,-0.54222,65.115338,140.79116)"
     id="g318" /><g
     transform="matrix(0.54222,0,0,-0.54222,65.559959,139.90192)"
     id="g322"><path
       style="fill:#2d506b"
       inkscape:connector-curvature="0"
       d="M 0,0 2.715,-0.257"
       id="path324" /></g></svg>