<?xml version="1.0" encoding="UTF-8" standalone="no"?>
<svg
   xmlns:dc="http://purl.org/dc/elements/1.1/"
   xmlns:cc="http://creativecommons.org/ns#"
   xmlns:rdf="http://www.w3.org/1999/02/22-rdf-syntax-ns#"
   xmlns:svg="http://www.w3.org/2000/svg"
   xmlns="http://www.w3.org/2000/svg"
   xmlns:sodipodi="http://sodipodi.sourceforge.net/DTD/sodipodi-0.dtd"
   xmlns:inkscape="http://www.inkscape.org/namespaces/inkscape"
   id="svg2"
   xml:space="preserve"
   height="200"
   width="320"
   version="1.1"
   viewBox="0 0 320.00105 200.0002"
   inkscape:version="0.91 r13725"
   sodipodi:docname="hokusai_simple.svg"><defs
     id="defs114" /><sodipodi:namedview
     pagecolor="#7e7e7e"
     bordercolor="#666666"
     borderopacity="1"
     objecttolerance="10"
     gridtolerance="10"
     guidetolerance="10"
     inkscape:pageopacity="0"
     inkscape:pageshadow="2"
     inkscape:window-width="1360"
     inkscape:window-height="721"
     id="namedview112"
     showgrid="false"
     inkscape:zoom="1.3169864"
     inkscape:cx="321.65177"
     inkscape:cy="82.796213"
     inkscape:window-x="1276"
     inkscape:window-y="28"
     inkscape:window-maximized="1"
     inkscape:current-layer="svg2" /><metadata
     id="metadata820"><rdf:RDF><cc:Work
         rdf:about=""><dc:format>image/svg+xml</dc:format><dc:type
           rdf:resource="http://purl.org/dc/dcmitype/StillImage" /><dc:title /></cc:Work></rdf:RDF></metadata><g
     id="g4"
     transform="matrix(.54222 0 0 -.54222 -9.5592 325.84)"><g
       id="g12"
       transform="translate(17.503,462.42)"
       fill="#82b9cd"><path
         id="path14"
         d="M 158.3974,141.8245 C 125.30697,99.061153 155.57158,72.273221 165.91452,55.502521 -181.81033,-214.26405 116.2951,979.71228 158.3974,141.8245 Z"
         transform="matrix(1.8443,0,0,-1.8443,0.12674,138.52)"
         inkscape:connector-curvature="0"
         style="fill:#000080"
         sodipodi:nodetypes="ccc" /></g><g
       id="g46"
       transform="translate(317.16,326.38)"><path
         id="path48"
         d="M 29.097749,6.182584 C 44.037013,14.521597 66.58767,26.238709 77.765,41.21375 93.245,37.40655 105.92068,14.036535 118.73668,4.3765348 Z"
         style="fill:#000080;fill-opacity:1"
         inkscape:connector-curvature="0"
         sodipodi:nodetypes="cccc" /></g><g
       id="g50"
       transform="translate(322.94,325.76)" /><g
       id="g54"
       transform="translate(469.16,344.06)"><path
         d="m 235.41995,144.13083 c 4.99558,-0.58367 15.10431,-2.19527 15.77735,-5.625 -2.75296,-4.61306 -19.81647,-0.88316 -15.77735,5.625 z"
         transform="matrix(1.8442758,0,0,-1.8442758,-451.53026,256.8773)"
         id="path56"
         inkscape:connector-curvature="0"
         sodipodi:nodetypes="ccc"
         style="fill:#000080;fill-opacity:1" /></g><g
       id="g58"
       transform="translate(472.58,341.95)" /><g
       id="g62"
       transform="translate(468,339.15)" /><g
       id="g66"
       transform="translate(471.28,341.88)" /><g
       id="g70"
       transform="translate(451.81,335.12)" /><g
       id="g74"
       transform="translate(452.36,335.53)" /><g
       id="g78"
       transform="translate(460.9,337.85)" /><g
       id="g82"
       transform="translate(551.11,402.32)"><path
         style="fill:#000080;fill-opacity:1"
         d="m 287.70703,100.76953 c -2.02715,3.1932 -3.79602,5.78894 -6.40625,8.99805 1.17237,-0.0148 1.77836,0.0518 2.44336,-0.85156 l 0.51953,0.88867 c -6.665,8.697 -21.60933,13.63844 -24.91797,19.77734 6.43012,11.74071 28.38066,-11.52505 31.90694,-19.8417 l -3.5085,-6.45322 c 1.05575,-1.25854 0.82832,-2.18759 -0.0371,-2.51758 z m -0.66601,3.44336 c 0.88777,1.40315 1.4218,1.73187 2.22265,3.48047 -0.85567,1.17412 -2.1982,1.10525 -3.66797,1.55664 l -0.92382,-1.44531 z"
         transform="matrix(1.8442758,0,0,-1.8442758,-533.48026,198.6173)"
         id="path84"
         inkscape:connector-curvature="0"
         sodipodi:nodetypes="ccccccccccccc" /></g><g
       id="g86"
       transform="translate(508.7,373.22)" /><g
       id="g90"
       transform="translate(521.68,388.18)"><path
         id="path92"
         d="m0 0v-1.503"
         fill="#fff" /></g><g
       id="g94"
       transform="translate(528.99,392.76)"><path
         id="path96"
         d="m0 0 .135-1.435"
         fill="#fff" /></g><g
       id="g98"
       transform="translate(497.03,355.88)" /><g
       id="g102"
       transform="translate(403.91,311.73)"><path
         id="path104"
         d="m -56.955,32.474 c 121.92,-36.171 167.12,14.569 218.6,73.449 C 139.92726,40.737571 56.091027,-6.7310791 -28.746133,13.162935 Z"
         inkscape:connector-curvature="0"
         style="fill:#e6c25a"
         sodipodi:nodetypes="cccc" /></g><g
       id="g118"
       transform="translate(520.45,370.56)"><path
         id="path120"
         d="M 0,0 C -3.5994619,-3.1789502 -7.1399553,1.4725715 -5.326,4.304 -1.2990222,7.2603151 1.6683589,3.9809586 0,0"
         inkscape:connector-curvature="0"
         style="fill:#ffffff"
         sodipodi:nodetypes="ccc" /></g><g
       id="g122"
       transform="translate(530.08,378.21)"><path
         id="path124"
         fill="#fff"
         d="m0 0c-2.2189-2.4709-7.5642-1.2385-7.034 1.981 2.5263 4.0508 7.5515 3.1378 7.034-1.981" /></g><g
       id="g130"
       transform="translate(527.48,378.96)" /><g
       id="g134"
       transform="translate(520.45,375.27)" /><g
       id="g142"
       transform="translate(511.03,362.98)"><path
         id="path144"
         d="M 0,0 C -3.7260646,-2.6494913 -7.1143879,2.3369152 -4.645,4.644 -0.78093792,6.6330345 1.7991331,2.5275496 0,0"
         inkscape:connector-curvature="0"
         style="fill:#ffffff"
         sodipodi:nodetypes="ccc" /></g><g
       id="g150"
       transform="translate(501.81,356.56)"><path
         id="path152"
         d="M 0,0 C -3.3682058,-2.9941405 -7.2339986,1.7794529 -5.464,4.097 -1.7782151,7.4981546 1.5452517,3.2894992 0,0"
         inkscape:connector-curvature="0"
         style="fill:#ffffff"
         sodipodi:nodetypes="ccc" /></g><g
       id="g158"
       transform="translate(500.24,357.04)" /><g
       id="g162"
       transform="translate(501.22,355.47)" /><g
       id="g166"
       transform="translate(518.33,359.91)"><path
         id="path168"
         d="m0 0 3.961 7.648"
         fill="#647c33" /></g><g
       id="g170"
       transform="translate(519.76,359.7)"><path
         id="path172"
         d="m0 0 4.098 7.854"
         fill="#647c33" /></g><g
       id="g174"
       transform="translate(524.82,369)"><path
         id="path176"
         d="m0 0 1.708 3.273"
         fill="#647c33" /></g><g
       id="g178"
       transform="translate(538.14,382.65)" /><path
       style="fill:#ffffff"
       d="M 119.34375,1.2734375 C -11.107535,1.4437103 -32.900866,94.802029 0.04296875,210.74805 l -0.0019531,0.004 C 36.280714,211.23995 54.317631,171.901 88.390625,159.55469 140.69842,232.55895 283.76376,265.64644 319.97852,137.28711 294.35328,165.9357 184.66633,242.4312 129.80469,163.9668 c -0.0112,-15.68894 35.53387,23.01895 51.83203,15.82031 -17.52098,-16.24272 -43.37436,-26.18799 -1.34375,-19.07031 94.83819,11.29554 134.61732,-28.81746 140.62891,-86.164066 C 255.95514,176.37749 196.25108,167.55873 110.22656,108.82812 80.068384,145.11879 -13.057258,186.50224 9.4941406,97.388672 19.845087,101.58002 83.724467,97.761292 115.45508,82.15625 -9.4123608,13.26742 179.22515,20.231191 169.37305,71.666016 c -0.76019,7.581252 5.70734,7.345255 11.07422,7.248046 C 200.78045,65.309806 203.69664,2.8101383 119.34375,1.2734375 Z"
       transform="matrix(1.8442758,0,0,-1.8442758,17.629744,600.9373)"
       id="path182"
       inkscape:connector-curvature="0"
       sodipodi:nodetypes="ccccccccccccccc" /><g
       id="g206"
       transform="translate(428.66,232.47)"><path
         id="path208"
         d="M 0,0 C -97.111548,-23.378652 -175.03992,56.987963 -164.8786,76.2325 -116.1946,2.0665 -7.5681303,49.098561 46.401964,20.062345"
         inkscape:connector-curvature="0"
         style="fill:#e6c25a"
         sodipodi:nodetypes="ccc" /></g><g
       id="g210"
       transform="translate(463.83,263.68)" /><g
       id="g214"
       transform="translate(476.47,265.53)" /><g
       id="g222"
       transform="translate(482.75,267.85)" /><g
       id="g230"
       transform="translate(495.52,263.41)" /><g
       id="g234"
       transform="translate(500.1,264.91)" /><g
       id="g242"
       transform="translate(480.29,263.68)"><path
         d="m 227.24023,190.82422 c 12.13453,-4.67026 26.59366,1.42828 37.25592,-5.68501 -6.95969,-16.47156 -56.36734,0.35626 -37.25592,5.68501 z"
         transform="matrix(1.8442758,0,0,-1.8442758,-462.66026,337.2573)"
         id="path244"
         style="fill:#000080"
         inkscape:connector-curvature="0"
         sodipodi:nodetypes="ccc" /></g><g
       id="g246"
       transform="translate(473.6,251.46)" /><g
       id="g266"
       transform="translate(438.63,250.5)"><path
         id="path268"
         d="m 0,0 c -1.435,0 -5.874,1.776 -5.874,4.304 1.1813666,5.5453539 6.15591866,3.9685767 8.332,0.067"
         inkscape:connector-curvature="0"
         style="fill:#ffffff"
         sodipodi:nodetypes="ccc" /></g><g
       id="g270"
       transform="translate(450.04,251.73)"><path
         id="path272"
         d="M 0,0 C -12.802913,1.4477465 0.31585489,13.934145 2.116,5.396 2.39,2.526 2.186,0.411 0,0"
         inkscape:connector-curvature="0"
         style="fill:#ffffff"
         sodipodi:nodetypes="ccc" /></g><g
       id="g274"
       transform="translate(474.21,252.62)"><path
         id="path276"
         d="M 0,0 C -4.3525,0.40507 -3.641,7.1541 -3.143,7.648 4.5226342,10.771986 4.5857792,0.16588841 0,0"
         inkscape:connector-curvature="0"
         style="fill:#ffffff"
         sodipodi:nodetypes="ccc" /></g><g
       id="g278"
       transform="translate(463.22,251.25)"><path
         id="path280"
         d="M 0,0 C -7.512282,0.52187087 -5.1579357,9.9510219 -0.137,8.128 3.1356769,6.0046337 3.190433,0.47225613 0,0"
         inkscape:connector-curvature="0"
         style="fill:#ffffff"
         sodipodi:nodetypes="ccc" /></g><g
       id="g286"
       transform="translate(129.42,332.93)" /><g
       id="g290"
       transform="translate(122.35,337.18)"><path
         id="path292"
         d="m0 0s1.485.563 1.536 2.254c.051 1.69-.204 3.432-.204 3.432"
         fill="#2d506b" /></g><g
       id="g294"
       transform="translate(125.32,338.31)"><path
         id="path296"
         d="m0 0s-1.384-.768-1.332-1.587"
         fill="#2d506b" /></g><g
       id="g298"
       transform="translate(126.19,344.3)"><path
         id="path300"
         d="m0 0s-.666-1.179 0-1.793c.666-.615 1.229-.922 1.229-.922"
         fill="#2d506b" /></g><g
       id="g302"
       transform="translate(128.09,341.74)"><path
         id="path304"
         d="m0 0s.819-1.793 1.741-2.202 1.23-.409 1.23-.409"
         fill="#2d506b" /></g><g
       id="g306"
       transform="translate(131.26,340.72)" /><g
       id="g310"
       transform="translate(132.08,342.1)"><path
         id="path312"
         d="m0 0s1.126-1.384 2.151-1.179c1.024.205 1.127 1.282 1.127 1.282"
         fill="#2d506b" /></g><g
       id="g314"
       transform="translate(134.54,340.97)"><path
         id="path316"
         d="m0 0s-.563-1.537.614-1.537c1.178 0 1.64.768 1.64.768"
         fill="#2d506b" /></g><g
       id="g318"
       transform="translate(137.72,341.28)" /><g
       id="g322"
       transform="translate(138.54,342.92)"><path
         id="path324"
         d="m0 0 2.715-.257"
         fill="#2d506b" /></g><g
       id="g326"
       transform="translate(136.79,340.87)"><path
         id="path328"
         d="m0 0c-.513 0-2.562 1.178-3.125 2.867-.563 1.692-.205 2.715.512 3.689.717.972 1.998 1.843 3.535.511 1.536-1.332 2.048-2.56 1.485-4.455s-1.229-2.612-2.407-2.612"
         fill="#fff" /></g><g
       id="g336"
       transform="translate(56.213,398.76)"><path
         id="path338"
         d="M 109.63618,-47.657 60.111,-70.945 C -63.796839,75.851994 14.946042,-7.947227 109.63618,-47.657 Z"
         inkscape:connector-curvature="0"
         style="fill:#e6c25a"
         sodipodi:nodetypes="ccc" /></g></g></svg>