<svg xmlns:rdf="http://www.w3.org/1999/02/22-rdf-syntax-ns#" xmlns="http://www.w3.org/2000/svg" xml:space="preserve" height="200" width="320" version="1.1" xmlns:cc="http://creativecommons.org/ns#" xmlns:dc="http://purl.org/dc/elements/1.1/" viewBox="0 0 320.00105 200.0002"><g transform="matrix(.54222 0 0 -.54222 -9.5592 325.84)"><path fill="#ccc" d="m415.69 589.85c-10.425-35.182-61.946-5.0988-68.02-19.465 0-4.096 4.916-5.736 10.653-6.966 5.735-1.228 11.064-3.687 11.064-11.268-55.128-61.136-151.18-.53575-204.06 16.391-14.348-4.561-33.438 4.6695-44.87 4.507-3.482-.409-9.629-5.121-12.292-8.4-7.2499-7.6492-20.152-5.9372-26.02-12.908-4.098-5.326 1.639-8.604 5.327-7.99 7.7442 3.2796 14.156-2.905 21.102-1.229 8.4201 2.8661 12.873 6.696 21.923 3.279 15.591-38.686-46.491-68.47-70.684-82.568 245.2-243.72 528.67-403.41 549.69 21.123-16.39.6264-31.821-1.6679-47.328 4.078-19.849 8.2616-29.853-14.287-40.771-15.161-26.873 4.7139-54.643 27.344-78.674 31.961-46.75 31.214 42.474 42.077 46.097 58.596 0 3.892-5.326 5.122-11.677 4.917-11.133.009-28.213 4.3504-36.878 9.219-4.7873 7.2861 14.413 19.889-3.689 21.102-8.809 0-16.8-3.891-20.896-9.218"/><g transform="translate(17.503,460.68)"><path fill="#82b9cd" d="m0 0v28.068s4.61-1.024 9.322-2.868 6.659-2.049 9.117-2.049c2.459 0 8.502-.615 12.088.307s14.342 5.02 18.541 4.815c4.201-.205-10.141-16.288-17.824-20.386-7.683-4.097-31.244-7.887-31.244-7.887"/></g><g fill="#82b9cd" transform="translate(17.503,462.42)"><path fill="#82b9cd" d="m177.63 131.02c64.045 24.339 222.16-25.907 157.24-138.29-134.78 80.488-112.76-28.201-42.615-115.76 2.253-1.742 7.716-25.918 7.716-25.918v-101.21h-299.77c-24.751 195.79 23.275 291.58 177.43 381.18z"/></g><g transform="translate(295.12,212.51)"><path fill="#14273b" d="m0 0h-11.166s-.666 2.92-1.281 3.278c-.614.36-.306.974-.921 2.664-.615 1.692-2.203 3.535-.564 4.508 1.64.972 8.349-.973 10.347-2.869 1.997-1.894 3.585-7.581 3.585-7.581"/></g><g transform="translate(281.8,212.51)"><path fill="#14273b" d="m0 0h-5.891s-1.484 2.202-1.484 3.483.255 2.1 1.126 2.1.563-1.639 1.588-2.61c1.024-.974 3.483-2.562 4.661-2.973"/></g><g transform="translate(274.68,212.51)"><path fill="#14273b" d="m0 0c-35.645-5.0156-94.716 54.857-66.073 56.496 10.167-2.3524 2.9752-12.195 5.344-13.181 9.4999 2.5111 19.859-3.2094 21.854-10.379.82515-3.9173 10-26.411 14.905-23.562-.98311 5.0056-8.865 12.715-1.998 19.156 5.473 2.3816 4.1471-4.0998 7.887-4.302 2.387-5.597 11.398-6.901 13.061-12.754.359-1.435 2.05-5.994 3.279-7.427 1.229-1.434 1.741-4.047 1.741-4.047"/></g><path fill="#14273b" d="m301.09 346.25c-32.881 26.141-71.577 88.974-59.028 122.07 1.6878 27.447 45.711 37.085 31.307 45.643-12.813 5.4327-28.485.38511-36.431-10.892-18.605-32.283-13.304-76.834 4.3817-104.9-32.124 30.767-20.778 121.96 16.463 131.89-14.62 15.304-41.57-20.265-44.719-31.098-5.2284-9.6434-1.9351-21.39-6.7437-30.497-7.2666 5.0566-3.0519 19.236-.88687 27.137 2.7358 24.517 44.346 38.522 41.264 49.45-117.04 15.882-140.09-122.94-73.141-181.69 8.57-5.9917 23.822-5.2356 27.628 5.9606-17.094 33.004-41.768 51.626-40.744 87.575-1.1273 18.111-3.8177 36.533-1.2076 54.557 4.4233 10.323 13.507 18.338 24.01 22.122-13.054-7.3905-25.056-20.803-23.39-36.8-32.002-26.187 46.584-127.49 43.717-106.68-19.063 31.317-54.577 107.81-19.437 133.88 12.216 19.626 60.608 22.409 47.318 18.367-31.297-5.9871-65.762-24.295-55.225-58.872 2.6847-22.695 14.035-81.511 33.425-89.31-8.9462 20.251-24.353 36.288-21.367 58.672.0236 27.563-7.1027 56.248 15.752 74.434 27.725 20.389-9.0484-11.976-10.587-22.383-9.8308-39.115-.58198-106.72 37.536-117.08-.1068 9.9068-23.603 49.325-15.427 48.701 7.5024-11.619 7.2769-26.815 16.611-37.492 18.35-25.872 36.101-52.847 68.922-52.76z"/><g transform="translate(177,357.31)"><path fill="#14273b" d="m0 0s-3.893 1.024-5.737 1.434-6.556 2.458-8.4 3.688c-1.843 1.23-4.507 2.459-7.99 5.531-3.483 3.074-9.425 7.991-11.679 10.45-2.253 2.459-7.17 5.531-9.218 9.014-2.05 3.484-4.713 7.58-4.713 10.654 0 3.073 1.025 8.604 1.025 13.931s-.821 20.694-3.074 26.021c-2.254 5.326-8.81 17.209-19.258 17.005-10.45-.206-15.776-11.884-16.801-16.596-1.024-4.713-1.434-9.015-1.434-12.907 0-3.893.41-7.375 3.279-12.498 2.868-5.122 5.121-11.472 7.375-15.162 2.254-3.687 9.015-10.243 10.039-12.907 1.024-2.662 4.303-7.171 9.629-11.679 5.328-4.505 14.751-11.472 19.668-13.111 4.918-1.639 4.098-4.097 7.786-5.941s15.776-8.401 19.669-8.401 2.458 4.713.205 5.942c-2.254 1.229-7.787 3.688-9.835 5.122s-7.375 2.868-12.088 5.736c-4.712 2.869-9.834 4.714-14.341 8.401-4.508 3.688-6.351 5.327-9.015 8.605-2.663 3.278-7.58 7.171-8.81 11.269-1.229 4.096-3.074 7.99-2.868 13.521.205 5.531 4.712 8.605 5.736 8.195 1.025-.409 1.64-9.424 1.845-11.882.204-2.459 3.892-12.498 5.941-14.547 2.049-2.048 9.014-10.45 11.678-12.293 2.663-1.843 9.63-4.917 11.678-6.966 2.049-2.048 5.941-6.556 12.292-9.22 6.352-2.663 14.342-6.145 17.211-6.35s.205 5.941.205 5.941"/></g><g transform="translate(156.72,342.56)"><path fill="#14273b" d="m0 0s-26.225 14.137-28.683 16.595c-2.459 2.459-7.376 5.532-10.039 7.785-2.664 2.254-7.376 5.531-9.425 6.557-2.049 1.023-3.073 3.073-4.097 3.482-1.025.41-2.869 2.253-4.303 4.508-1.434 2.253-5.531 5.531-6.966 8.399-1.434 2.869-6.146 14.547-8.195 19.054-2.048 4.508-3.074 14.342-2.459 17.006.615 2.663 0 4.712-.204 7.58-.205 2.868 1.843 4.712.819 7.99s-4.097 3.483-7.785 3.483-9.22-12.293-9.22-15.98c0-3.688.205-7.786.41-11.269.205-3.482.41-19.054 3.893-26.224 3.483-7.171 12.907-23.152 12.907-23.152l6.351 1.025s-8.605 12.497-11.473 17.824c-2.868 5.326-5.531 12.908-5.327 18.644.205 5.737 1.23 9.015 2.254 11.883s3.688 3.483 4.917 2.664c1.229-.82.614-4.508-1.024-5.328-1.64-.818-3.484-4.711-4.098-10.039-.614-5.327 1.844-11.268 6.351-17.824 4.507-6.557 14.342-20.897 23.356-27.454 9.015-6.558 52.04-17.21 52.04-17.21"/></g><g transform="translate(66.777,387.43)"><path fill="#14273b" d="m0 0c-1.172 4.22-4.507 14.956-5.122 19.258-.614 4.303-1.229 5.533-2.048 10.04-.82 4.507-3.074 9.22-7.172 9.834-4.096.615-14.136-1.434-14.751-4.507-.615-3.074.615-8.811-.409-11.883-1.024-3.074-2.664-4.508-4.508-4.918-1.844-.409-.819-4.097 1.23-5.532 2.048-1.434 9.014-7.171 9.629-10.449.614-3.278 7.99-20.077 8.809-24.584.82-4.508 4.713-13.933 7.172-19.259 2.458-5.327 9.219-10.654 10.858-12.908s6.966-5.121 8.4-7.376c1.434-2.253 7.171.819 11.268 1.845 0 0-7.17 4.711-10.858 8.194s-13.727 14.138-14.546 17.211c-.82 3.073 1.433 6.555 2.254 16.185.818 9.629.818 15.161-.206 18.849"/></g><g transform="translate(35.43,325.97)"><path fill="#14273b" d="m0 0s-11.678 7.172-12.087 18.235c-.411 11.063-1.23 37.288-2.049 47.532-.82 10.244 1.434 13.113 3.483 13.522 2.048.41 8.195-2.254 9.014-9.221.82-6.964 8.4-21.511 12.908-28.067 4.506-6.556 8.4-13.727 8.4-17.824s2.663-8.401 4.507-10.86c1.844-2.457 6.762-6.76 8.605-8.809 1.844-2.049 7.375-4.097 9.834-8.196 0 0-21.102-2.253-21.922-.204-.819 2.049-.819 3.073-2.868 4.713-2.05 1.638-10.244 11.269-11.679 14.955-1.434 3.689-2.048 6.761-3.073 6.761-1.024 0-1.024-3.072.615-6.35 1.639-3.279 3.687-7.582 6.352-10.245 2.663-2.664 7.99-7.171 8.81-8.4.819-1.23.614-2.867-3.075-2.049-3.687.819-15.775 4.507-15.775 4.507"/></g><g transform="translate(317.16,326.38)"><path fill="#231f20" d="m11.998-.21425c22.57-12.12 35.76-21.744 61.857-19.385 20.526 1.1282 40.918 4.0464 61.168 7.5048-42.137 47.393-40.85 88.884-123.02 11.88zm51.291-20.484c-105.6 13.488-13.596 24.302 14.476 61.912 15.48-3.8072 29.641-26.187 42.457-35.847 4.6676-5.6358 13.976-13.466 15.248-18.198-23.865-4.0764-47.928-7.5671-72.181-7.8675z"/></g><g transform="translate(322.94,325.76)"><path fill="#14142d" d="m0 0c1.64.411 2.595 1.095 3.961 1.504s3.825.545 5.464.683c2.8376.54041 11.917 3.367 13.25 2.459 1.0251-2.8183-4.3642-1.363-5.602-3.689 4.1896-.32342 6.5131.29045 9.561 2.321 2.8803-3.3596 6.022-.84647 9.016 2.87 17.62 2.773 21.932 5.4887 27.863 9.152.47687-9.3277-.7267-5.7291 5.053-1.777 5.5535-17.386 7.0748-5.9007 13.795-3.415 3.869-3.6258 8.5074-13.91 5.736-3.825-.273 1.094-.546 2.458-.135 2.869 9.815-8.6653 2.9579-5.1361 5.872 1.639 13.205-16.735 23.658-21.442 10.38-25.541-16.526-4.234-57.366-3.961-74.985 1.912-17.616 5.875-29.225 12.838-29.225 12.838"/></g><g transform="translate(469.16,344.06)"><path fill="#231f20" d="m0 0s0 .752.613 1.638c.616.888 1.161 3.278 1.913 3.415.751.136 2.731-1.434 4.164-1.775 1.436-.342 4.714-.683 5.056-1.844.341-1.161-4.713-2.801-7.308-3.142-2.595-.342-4.438-.888-4.438 1.708"/></g><g transform="translate(472.58,341.95)"><path fill="#fff" d="m0 0s-1.775-.203-2.457 1.367c-.683 1.571.273 3.824 1.776 4.166 1.502.342 3.482-.410 4.165-1.229.684-.820-.274-2.664-1.025-3.211-.750-.545-1.024-.887-2.459-1.093"/></g><g transform="translate(468,339.15)"><path fill="#2d506b" d="m0 0c-1.091.059-1.844 1.159-1.844 2.253s1.025 1.777 2.048 1.913c1.025.136 3.006.068 3.484-1.161.478-1.23-1.162-3.143-3.688-3.005"/></g><g transform="translate(471.28,341.88)"><path fill="#2d506b" d="m0 0c-.753-.127-1.571.34-1.571.887s.41 1.366.957 1.434c.546.068 1.229-.819 1.229-1.434s.204-.751-.615-.887"/></g><g transform="translate(451.81,335.12)"><path fill="#2d506b" d="m0 0s-1.16.955-.682 1.707c.478.751 3.483 1.706 4.029 2.253.547.547 1.025 2.322 3.074 2.39 2.048.068 4.234-.204 4.438-1.981.205-1.776-2.185-2.868-4.438-3.619-2.255-.750-5.192-1.297-6.421-.750"/></g><g transform="translate(452.36,335.53)"><path fill="#fff" d="m0 0s-1.024 1.776-.684 3.21c.342 1.434 2.062 2.374 3.279 2.595.751.136 2.39-.342 3.21-1.366.818-1.025 1.091-1.501 1.024-2.389-.068-.889-4.918-3.552-6.829-2.05"/></g><g transform="translate(460.9,337.85)"><path fill="#2d506b" d="m0 0c-1.103 1.348-1.229 4.371.888 5.26 2.117.886 4.712-.546 5.327-2.049.614-1.505-1.093-3.075-2.458-3.553-1.367-.478-2.528-1.159-3.757.342"/></g><g transform="translate(551.11,402.32)"><path fill="#231f20" d="m0 0c-1.477 3.2249-2.4607 3.8322-4.098 6.42l-4.37-6.625 1.706-2.664s3.621 1.163 4.783 1.23c1.159.069 1.979 1.639 1.979 1.639m-12.975-16.254c-3.856.38924-4.4969 4.486-3.484 7.786.89334 2.7979 1.5193 1.6225 3.484 3.346.615.341 3.756 1.229 3.756 1.229l-.957 1.638-.956-1.297-3.551-.273s4.575 5.532 7.17 9.493c2.596 3.962 4.235 6.488 4.645 7.103s1.433.34 1.502-.342c.068-.682-.069-2.184-.273-2.526-.205-.341-1.162-1.776-1.162-1.776l4.987-7.444-.957-2.253s-6.146-6.352-6.966-7.922c-.819-1.572-7.238-6.762-7.238-6.762"/></g><g transform="translate(508.7,373.22)"><path fill="#fff" d="m0 0s-1.775.478-2.253 1.435c-.478.956-.138 2.595 1.435 3.415 1.569.819 2.525.751 3.822.477 1.298-.273 2.118-1.979 2.118-1.979"/></g><g transform="translate(521.68,388.18)"><path fill="#fff" d="m0 0v-1.503"/></g><g transform="translate(528.99,392.76)"><path fill="#fff" d="m0 0 .135-1.435"/></g><g transform="translate(497.03,355.88)"><path fill="#2d506b" d="m0 0s-1.638 3.21-1.092 6.077c.546 2.87 3.969 6.238 5.942 6.831 2.729.82 8.261 1.946 11.745-3.791"/></g><g transform="translate(403.91,311.73)"><path fill="#e6c25a" d="m-56.547 29.195c-.408 1.127-1.126 3.279-.408 3.279 121.92-36.171 167.12 14.569 218.6 73.449.512.306 1.742-2.357 1.844-4.098.11-1.74-29.49-48.141-56.23-64.634-26.737-16.494-91.722-42.972-105.04-45.226"/></g><g transform="translate(527.55,373.6)"><path fill="#2d506b" d="m0 0s-11.985 6.761-17.754 1.741c-2.577-2.243-3.892-6.42-4.304-9.766-.409-3.346 1.059-6.009 1.059-6.009 4.4973-1.4809 4.7755 6.1368 7.478 6.454.921 0 5.428-.411 8.707 1.023 3.278 1.435 4.814 6.557 4.814 6.557"/></g><g transform="translate(518.74,368.38)"><path fill="#2d506b" d="m0 0s-4.234 1.57-4.098 4.985c.136 3.414.986 6.359 3.961 9.015 6.964 6.216 13.316 1.571 13.316 1.571"/></g><g transform="translate(526.25,373.22)"><path fill="#2d506b" d="m0 0s-3.482 2.664-3.21 6.353c.273 3.686.615 5.53 1.707 6.691 6.7759 3.4415 6.1947 5.7544 12.294 8.947 1.434.751 3.005 1.64 3.415.751.411-.888-.205-1.366-1.229-2.117-6.2995-3.431.008-11.65-3.346-15.024-1.708-1.572-5.056-6.898-9.631-5.601"/></g><g transform="translate(520.45,370.56)"><path fill="#fff" d="m0 0c-.953-1.467-3.893-1.298-4.78-.478-.889.82-1.64 3.209-.546 4.782 1.092 1.57 3.413 1.707 5.054.613 1.637-1.093 1.159-3.551.272-4.917"/></g><g transform="translate(530.08,378.21)"><path fill="#fff" d="m0 0c-.202-1.081-2.526-1.435-4.165-1.435-1.64 0-3.21 1.777-2.869 3.416.343 1.639 2.255 3.279 5.054 2.391 2.8-.890 2.184-3.28 1.98-4.372"/></g><g transform="translate(528.44,380.12)"><path fill="#fff" d="m0 0s.683 1.092 1.502 1.092"/></g><g transform="translate(527.48,378.96)"><path fill="#fff" d="m0 0s-.137-1.092.206-1.913"/></g><g transform="translate(520.45,375.27)"><path fill="#fff" d="m0 0s-.41-1.502-1.024-1.911"/></g><g transform="translate(517.99,371.31)"><path fill="#fff" d="m0 0s-1.024-1.434-2.048-1.161"/></g><g transform="translate(511.03,362.98)"><path fill="#fff" d="m0 0c-.798-1.097-3.893-.752-4.781.066-.889.822-1.298 3.348.136 4.578 1.434 1.229 3.551.957 4.645-.684 1.093-1.639 1.093-2.459 0-3.96"/></g><g transform="translate(509.66,365.71)"><path fill="#fff" d="m0 0s1.229.139 1.502.89"/></g><g transform="translate(501.81,356.56)"><path fill="#fff" d="m0 0c-.771-1.544-3.96-1.025-4.78-.206-.82.820-1.982 2.733-.684 4.303 1.299 1.57 3.484 1.843 4.713.819 1.23-1.023 1.639-3.141.751-4.916"/></g><g transform="translate(501.33,361.14)"><path fill="#fff" d="m0 0s.614-1.708-.547-2.459"/></g><g transform="translate(500.24,357.04)"><path fill="#fff" d="m0 0s-.205-1.092-1.365-1.229"/></g><g transform="translate(501.22,355.47)"><path fill="#647c33" d="m0 0 12.395 7.444"/></g><g transform="translate(518.33,359.91)"><path fill="#647c33" d="m0 0 3.961 7.648"/></g><g transform="translate(519.76,359.7)"><path fill="#647c33" d="m0 0 4.098 7.854"/></g><g transform="translate(524.82,369)"><path fill="#647c33" d="m0 0 1.708 3.273"/></g><g transform="translate(538.14,382.65)"><path fill="#647c33" d="m0 0 1.98 1.024"/></g><path fill="#fff" d="m346.44 212.67c8.1807 39.126-27.024 110.99 23.766 102.44 12.088-2.048 30.733-3.893 55.317 1.639 24.586 5.531 56.342 17.824 76.011 31.551s48.351 41.387 56.547 53.064c8.195 11.679 20.283 31.347 31.551 43.64s19.873 18.439 19.873 18.439v-250.77z"/><path fill="#82b9cd" d="m609.5 212.39c-102.97.13542-205.94.0954-308.91.3405-11.86 6.6694-25.004 6.8034-34.576 14.454-3.8937-8.1094-2.1041-4.4939-5.2444 2.674-7.369 20.735-16.572 41.689-17.141 63.914 3.8812 12.737 9.2715 25.11 13.755 37.72 18.686 3.8349 40.846 6.7834 56.707-6.3793 16.693-6.9783 36.359-4.0077 51.534-15.278 22.58-10.506 47.912-7.1026 71.999-8.1899 23.349-.21082 46.538 4.2073 68.232 12.75 33.573 9.8173 65.894 23.774 95.865 41.795 10.722 6.2303 7.6967-7.5277 8.0228-13.65-.08-43.384-.15999-86.767-.23998-130.15z"/><g transform="translate(601.99,303.09)"><path fill="#14273b" d="m0 0c-6.9153.070966-5.6741-8.0105.7901-4.8773 6.2043.63031 6.7313-4.1943.14032-3.0809-9.8847-.11569-19.761 4.6453-29.409.84164-9.3443-4.4355 5.3375-8.9089 9.9546-7.6453 8.824-.27968 17.441 2.1541 26.036 3.8338v10.518c-2.486.31602-5.0015.71587-7.512.41zm7.512-17.075c-7.4591 1.0889-13.947-3.2633-20.769-4.1247-8.4009-2.2213-16.683-5.1449-25.258-6.2262 3.8249-9.5817 42.855.48882 26.81-3.6364-8.4279-3.395-16.959-2.7366-25.863-2.6622-6.8753-2.3074-21.59 5.7355-22.582-4.337 6.3507-4.7635 15.395-2.2625 22.838-2.2286 15.137 1.4251 29.616 6.5194 44.825 7.4641zm0-22.535c-6.7508-.54491-15.269.38096-20.369-4.6024 3.208-5.6608 15.976-5.2431 20.369-1.9163zm-141.16-37.903c-6.3044-2.1294-15.616 7.6387-4.826 7.9001 8.4404.92997 18.851-5.6908 25.76-2.8104-4.422-1.6427-18.156 4.6793-8.259 6.7724 7.4539-1.8898 14.856-4.4696 22.676-3.0504 2.528 1.2063-15.246-.24094-7.5321 5.2867 10.737 3.4978 21.664-2.097 32.473-2.5007 8.2753-3.3644 15.675 1.836 23.103 4.6362-9.2898.3641-19.062-3.4777-27.964 1.0124-8.4102-.80415-11.244 9.0995-1.241 7.1769 7.7157-1.9609 15.56-.91662 23.277.42207 8.4114.77385 16.455-3.2222 24.963-1.8821 4.1858-.07031 20.194.03829 8.6043.47831-5.0763 3.9042-17.656-.94061-18.128 5.1857 7.8248 5.3992 16.62-1.5167 25.037-.70014 7.2178-1.502 18.533 1.5085 23.178-1.9872-29.554-9.5875 3.3995 4.973-.65033-7.4813-17.588-.70701-35.815-.16239-52.716-6.1812-20.156-5.0484-40.252-10.86-60.845-13.79-8.9848-.7627-18.051-.09713-26.91 1.5121z"/></g><g transform="translate(609.51,419.73)"><path fill="#82b9cd" d="m0 0c-7.7052.82962-.92864 16.197 0 6.4897zm-9.834-25.404c-10.33 3.4504 3.3915 6.4022 0 0zm-137.68-91.649c51.987 10.061 203.4 35.352 141.95 110.06-7.9608 3.4183-11.124-5.0883-3.9286-8.7997-6.8957 3.503-15.192.17055-9.2441-8.2038 2.936-2.9204 4.2462-10.198-1.3532-4.5875-5.5889 5.7355-10.386-2.4792-3.3998-5.0259 3.2845-1.3374 15.694-3.1813 11.49-6.0369-3.2779.94969-13.808 4.6642-8.1716-2.2667-5.8871 4.2194-17.613 1.6693-9.0835-6.4294 1.3849-5.0853-9.6473 7.9326-11.866-.32223-2.7117-3.9944 8.0604-12.769-1.2673-9.5734-5.4 3.2126-7.7513-3.3291-12.069 2.0213-5.0997 2.0756-4.4971-3.0226-9.3538-.5686-3.992-2.986 4.9612-14.164-2.0899-7.7331-2.9797 3.0642-9.9078 3.8761-9.4988-2.1292-10.846 4.082 5.042-8.8692-2.6369-12.88-.49678-5.5851-.10719-4.4345-4.4959-1.4918-6.5736 4.1986-6.3161-5.2668-6.7889-5.7275-3.33 5.5082-15.28 10.566-12.178-.44167.18899-8.5401-8.9807 6.8881-9.9215-3.3909-5.1957 7.065-15.101 1.8772-19.348-4.4451 3.5919-.94299 12.342-5.5385 3.9512-5.8193-7.1407 3.144-18.615 4.7316-17.137-6.0563-5.2197-4.2063-17.971 7.4547-16.699-3.075-4.2636-1.6801-15.38 6.5201-10.883-1.3149 8.0013-4.5117 18.683 4.5859 24.019-5.7583zm-27.728 3.003c-1.3731 5.9702-15.687 7.9548-7.8829-.22142 1.6769-2.2268 7.5994-4.1197 7.8829.22142zm-11.473 1.229c-6.6878 8.049-5.1705-4.9045.64064-2.5651.1784.84256.14629 2.0015-.64064 2.5651zm-5.874-3.96c2.1436 6.6518-15.415 11.845-6.4423 4.2047 1.8613-1.5314 3.4576-5.3571 6.4423-4.2047zm-11.2 2.049c-1.4643 4.1075-10.407 10.723-6.4962 1.8067 1.1356-1.7251 5.3018-5.4358 6.4962-1.8067zm-8.605-1.503c-4.4912 2.016-5.6984 11.196-1.2476 3.2117.49204-1.0393.88359-2.1222 1.2476-3.2117z"/></g><g transform="translate(609.61,403.92)"><path fill="#507398" d="m0 0c-3.963 4.0102 1.0611 10.353-.040872 2.9269zm-77.06-60.763c-3.36 8.4943 7.2719-.23528 9.2464.78008-6.8025 6.7647 7.7885 3.3561 9.7454-.06072 2.8296-9.645-16.271-3.1919-18.992-.71936zm77.06 57.485c-3.3 5.9933-13.644 2.5903-6.0394-2.951 3.3268-1.7273 3.5649-9.1375.066496-3.2565-7.2518 2.7611.038638-7.9891-3.2461-11.411-1.8299-4.4119 7.5888-9.1463 3.2446-11.899-3.6676 2.7557-9.9444 11.268-14.002 5.5474-.66551 3.8994-9.2235 5.709-4.9886.57683 2.0866-3.0139 8.6121-14.789 1.1215-9.5395-2.967 1.4394-13.05 8.4304-8.1179.56362 3.0363-7.6622-9.3859 9.6891-11.074.4217 1.8543-2.9138 5.7356-9.0302 3.2257-10.885-3.9239 2.4986-8.204 7.0605-11.513 1.1409-3.9365 1.256-10.518-.21492-6.6964-5.4551 5.0048-3.6123 11.233-6.3149 17.517-6.0565 13.587.1315 25.85 7.0267 38.026 12.264 6.5157 5.2256 2.557 31.642 2.4762 40.939zm-56.342-66.995c-1.963 3.478-8.8223 2.6746-3.2134-.29475.6256-1.344 2.1928.24357 3.2134.29475zm-3.892-1.741c-.961 5.0702-16.095 7.2034-9.2848.92138 2.6758-3.5785 5.6276-3.025 9.0851-1.0043zm-8.196-3.484c1.2048 6.3073-12.457 9.7787-7.887 1.743 2.6303-3.4438 4.4803-2.9092 7.887-1.743zm-7.785-2.867c-2.0234 4.1285-11.617 12.857-14.132 6.8265 3.8667-2.2486 3.6403-11.945 8.7836-8.7183zm-25.778-11.406c5.0199 2.5022 16.332 3.7421 15.635 10.443-2.2039 2.7805-12.185 8.6468-8.1231.48578-1.2288 2.3986-11.01 7.1861-8.9017 1.9263 5.5907-5.458-2.9335-1.2-4.9957 1.0763-7.0394 1.8865 4.2753-11.158-3.0336-4.9673-3.5248 1.3121-12.39 3.9915-8.7818-2.8514 6.6351-2.1378 4.5084-6.4957-1.7072-5.327-4.1074-7.0521 9.8912-3.1255 14.024-2.4416 1.9827.47154 3.9445 1.029 5.8836 1.6557zm-26.498-3.142c-1.9977 2.7009-9.3457 6.341-7.649-.136-2.4828 2.9628-13.45 8.3231-12.392 1.4668 1.962-5.4085-8.5218 4.9028-7.6872-2.8328.71617-7.6671 13.086-3.0701 18.752-2.6934 3.1912.86528 6.3934 2.0783 8.976 4.1954zm-43.025-6.283c.44423 7.0969 16.768 1.7616 6.539-.34038-2.1564-.34019-4.4674-.48526-6.539.34038z"/></g><g transform="translate(276.37,281.1)"><path fill="#14273b" d="m-20.983 17.483c60.788-29.188-14.73-7.0262 123.29-60.235l44.389-1.708c8.5629-2.6381.11101-8.5461-5.0477-8.2627-63.655-81.312-206.12 57.013-162.63 70.206z"/></g><g transform="translate(568.94,320.71)"><path fill="#14273b" d="m0 0c-5.2894.2695-6.4512-2.3458-.52862-1.9986 1.4385-.0364 3.0553 2.2267.52862 1.9986zm-1.502-3.143c-7.7165-.11521-23.571-2.0657-25.473-5.8063 8.4271-.40314 19.056-.54638 25.473 5.8063zm-6.83-5.462c-7.2651-1.2107-24.971-3.2021-25.623-6.5439 8.8449-1.5842 19.487-.93091 25.623 6.5439zm-64.47-10.517c2.3551 9.1897 16.387-.80782 23.384 2.3919 9.494-.66772 24.309 1.4658 30.579-1.2246-14.11-8.4872-42.157-5.8906-53.964-1.1673zm41.599-9.478c-11.956.48668-23.824-3.296-35.763-1.3716 6.7392-6.4514 19.791-3.4117 28.756-3.2082 2.684.87817 5.1247 2.4748 7.0075 4.5797zm-8.408-6.776c-14.309.73301-28.624 1.3559-42.938 1.9813 5.9486-8.371 18.597-4.407 27.446-6.86 5.4638-.19626 11.662.51184 15.493 4.8787zm-80.472 4.1709c-4.1336 1.3765-15.025 5.7094-5.5533.26701 19.132-11.194 41.254-16.3 63.157-18.005 5.1243-1.834 16.874 7.3488 5.3584 6.0333-21.003 2.0501-45.785 5.3423-62.962 11.705zm-137.39 2.0644c-10.753 1.9751-5.9742 24.372 3.3236 12.326 6.4634-6.591 11.024-16.359 20.08-19.619-2.882 3.4724-13.359 17.783-3.0594 14.345 2.3815-2.5345 13.781-12.551 7.2216-3.5534-4.965 6.4952-12.526 10.816-13.072 18.338-12.192 14.563 37.691-41.871 48.9-40.741-13.046 8.6091-25.31 19.718-32.078 34.124 10.94-8.3956 31.887-26.713 47.222-30.921 9.7193-5.5973 18.744-12.65 29.832-15.481 3.8795-1.9474 20.134-5.5706 15.505 2.1131-9.4206 4.7126-19.803 8.6397-27.253 16.381-3.0645 7.688 12.544.68687 16.532-1.3471 13.08-4.9462 27.402-6.4872 39.765-13.431 7.9902 1.0359-7.2478 8.057-11.056 7.8307-7.7372.65354-15.822 13.032-3.142 8.7539 12.76-2.515 25.851-6.3972 36.29-14.358 7.7364-9.3671-11.732-8.904-17.001-11.416-13.155-2.9308-26.601-8.0972-40.201-4.5193-16.078 3.9009-32.006 8.4655-48.392 10.995-23.776 5.4109-52.667 15.799-69.417 30.18z"/></g><g transform="translate(428.66,232.47)"><path fill="#e6c25a" d="m0 0c-27.741 6.9716-62.239-9.1851-88.717-.047016-32.095 14.735-58.149 40.523-78.056 69.293-4.622 6.0294-4.7609 17.688 1.8914 6.9865 48.684-74.166 155.56-23.633 209.18-59.321-14.454-6.4783-28.616-14.848-44.705-16.365"/></g><g transform="translate(463.83,263.68)"><path fill="#fff" d="m0 0c-1.015.039-3.619-.205-3.823.889-.206 1.092-.137 3.757 1.569 4.438 1.707.684 3.826.956 5.056-.614 1.227-1.571-.956-4.779-2.802-4.713"/></g><g transform="translate(476.47,265.53)"><path fill="#fff" d="m0 0c-1.46-.198-4.985.615-5.054 2.05-.068 1.433 1.092 3.891 3.484 4.37 2.39.478 4.985-1.298 5.394-2.459.410-1.159-.819-3.55-3.824-3.961"/></g><g transform="translate(470.46,265.59)"><path fill="#2d506b" d="m0 0c-1.147-.177-2.869-.204-2.869.888s.273 2.253 1.572 2.459c1.297.205 2.115-.341 2.115-1.025 0-.683.069-2.186-.818-2.322"/></g><g transform="translate(482.75,267.85)"><path fill="#fff" d="m0 0c-.995.497-1.365.955-.546 2.048.819 1.094 1.911 2.255 3.824 2.527 1.913.274 3.825 0 4.44-1.229.614-1.23.545-3.756-3.006-4.097-3.551-.342-4.029.408-4.712.751"/></g><g transform="translate(492.58,263.07)"><path fill="#2d506b" d="m0 0c-1.366 0-3.55 1.503-3.55 3.074 0 1.57 1.776 2.867 3.279 2.867 1.5 0 4.371-.82 4.371-2.936 0-2.117-1.709-3.005-4.1-3.005"/></g><g transform="translate(495.52,263.41)"><path fill="#fff" d="m0 0c-1.024-.128-3.143-.205-3.482 1.162-.34 1.365-.956 2.732-.069 4.164.888 1.436 1.436 1.983 2.596 2.119 1.161.136 2.049 1.23 3.551.888 1.502-.343 2.869-1.639 3.073-2.117.206-.479-.546-3.142-1.639-4.03-1.092-.888-1.843-1.913-4.03-2.186"/></g><g transform="translate(500.1,264.91)"><path fill="#2d506b" d="m0 0s-.819 2.186.069 3.142 2.868 1.843 4.507 2.048c1.639.206 2.662-.273 2.732-.545.068-.274-2.322-1.708-3.826-2.665-1.502-.956-3.482-1.98-3.482-1.98"/></g><g transform="translate(505.45,269.74)"><path fill="#231f20" d="m0 0c-.224 0-.465-.014-.722-.047-1.571-.196-3.441-1.04-4.258-1.92-.46-.495-.304-1.584-.124-2.27.664.354 1.966 1.064 3.017 1.734l.82.515c.832.522 2.131 1.337 2.651 1.753-.252.110-.715.235-1.384.235m-5.571-5.405-.16.432c-.094.247-.88 2.452.15 3.563.947 1.02 2.992 1.956 4.756 2.177.294.037.57.052.825.052 1.232 0 2.223-.381 2.354-.905.115-.454-.271-.768-3.185-2.596l-.815-.513c-1.501-.954-3.496-1.988-3.515-1.999l-.41-.211z"/></g><g transform="translate(480.29,263.68)"><path fill="#2d506b" d="m0 0c-3.005.047-4.712 1.708-4.164 2.664.546.957 2.391 2.46 5.121 2.39 2.731-.069 5.123-.955 5.327-2.048.205-1.093-1.845-3.074-6.284-3.006"/></g><g transform="translate(473.6,251.46)"><path fill="#231f20" d="m0 0c-.619 0-1.026.137-1.845-.136-.819-.272-2.118-.409-3.962-.069-1.843.342-3.14.751-3.14.751l.751 2.321 3.688.275s1.57-1.571 2.731-2.118c1.162-.545 1.639-.819 2.048-.478.411.343-.546 3.006.821 3.142 1.365.136 5.121-.342 5.942-.888 0 0-5.396-2.8-7.034-2.8"/></g><g transform="translate(442.05,252.21)"><path fill="#2d506b" d="m0 0c-.961-.187-1.503-.136-2.187-.751-.681-.614-2.183-1.981-3.14-2.459-.956-.478-3.688.955-3.894 2.253-.203 1.3-.818 5.876 1.435 7.855 2.254 1.981 3.893 2.322 5.599 3.141 1.708.82 3.758 1.913 7.445 1.502 3.688-.409 4.575-.682 4.644-1.502.070-.819-3.072-6.761-4.371-7.308-1.297-.545-3.072-2.252-5.531-2.731"/></g><g transform="translate(444.3,256.31)"><path fill="#2d506b" d="m0 0c.267 1.687 2.663 4.644 3.552 5.6.887.957 3.892 3.277 6.214 3.483 2.322.204 4.234-.479 6.626-.546 2.389-.069 3.823-.138 3.823-.138l-6.146-10.38s-4.097.136-5.327.341c-1.229.206-3.211-.272-5.805.137-2.595.410-3.141.204-2.937 1.503"/></g><g transform="translate(461.1,251.8)"><path fill="#2d506b" d="m0 0c-.344-.43-1.161-1.434-2.255-.751-1.092.685-3.277 3.074-3.14 4.507.136 1.434 1.161 4.919 2.459 5.465 1.297.546 2.389 1.501 3.551 2.459 1.161.956 4.37 3.826 7.717 3.756 3.346-.069 6.967-.274 7.924-2.39.955-2.117-4.713-10.314-6.147-10.382-1.435-.068-4.301-.137-5.804-.137-1.504 0-3.759-1.843-4.305-2.527"/></g><g transform="translate(469.91,256.71)"><path fill="#2d506b" d="m0 0c-.243 2.034 1.638 6.011 4.643 7.512 3.004 1.503 6.488 3.211 9.562 2.801 3.073-.41 4.574-.616 5.531-2.528.955-1.911.821-4.302.069-5.258-.752-.957-8.742-4.848-8.742-4.848s-1.981.546-3.346.546c-1.367 0-7.375-1.093-7.717 1.775"/></g><g transform="translate(438.63,250.5)"><path fill="#fff" d="m0 0c-1.435 0-5.874 1.776-5.874 4.304 0 2.526 1.23 4.096 4.1 3.55 2.867-.547 3.823-2.185 4.232-3.483.409-1.297.615-4.643-2.73-4.576"/></g><g transform="translate(450.04,251.73)"><path fill="#fff" d="m0 0c-1.303-.245-4.371.75-5.191 2.937-.82 2.185-.275 4.645 1.434 5.326 1.708.682 5.601 0 5.873-2.867.274-2.87.070-4.985-2.116-5.396"/></g><g transform="translate(474.21,252.62)"><path fill="#fff" d="m0 0c-4.3525.40507-3.641 7.1541-3.143 7.648.822.616 2.391 1.505 3.689 1.094 1.298-.410 3.073-2.117 3.005-3.757-.069-1.638-.069-4.985-3.551-4.985"/></g><g transform="translate(463.22,251.25)"><path fill="#fff" d="m0 0c-.905-.105-2.526.479-3.756 1.846-1.23 1.365-1.911 3.482-1.161 4.916.751 1.433 3.142 2.118 4.78 1.366 1.64-.751 2.459-2.527 2.663-4.234.205-1.707-.203-3.621-2.526-3.894"/></g><g transform="translate(95.05,327.61)"><path fill="#e6c25a" d="m-41.112 64.673 8.467 3.961c33.442-19.314 64.064-33.419 98.002-45.141l-43.093-31.21c-33.342 8.4338-58.842 42.314-63.376 72.39z"/></g><g transform="translate(129.42,332.93)"><path fill="#2d506b" d="m0 0s-5.276 3.534-6.454 3.996c-1.178.46-1.895.87-1.844 2.1.051 1.229.461 1.843 1.28 2.202.82.358.718 1.332 1.383 1.997.666.665 1.486.871 2.869 1.127s3.124.256 4.303.563c1.177.307 6.043 1.896 8.041 1.742 1.997-.154 4.763-1.229 5.634-3.175.871-1.948.052-5.635-1.691-6.915-1.741-1.282-8.502-4.969-10.448-4.764-1.947.204-3.073 1.127-3.073 1.127"/></g><g transform="translate(122.35,337.18)"><path fill="#2d506b" d="m0 0s1.485.563 1.536 2.254c.051 1.69-.204 3.432-.204 3.432"/></g><g transform="translate(125.32,338.31)"><path fill="#2d506b" d="m0 0s-1.384-.768-1.332-1.587"/></g><g transform="translate(126.19,344.3)"><path fill="#2d506b" d="m0 0s-.666-1.179 0-1.793c.666-.615 1.229-.922 1.229-.922"/></g><g transform="translate(128.09,341.74)"><path fill="#2d506b" d="m0 0s.819-1.793 1.741-2.202 1.23-.409 1.23-.409"/></g><g transform="translate(131.26,340.72)"><path fill="#2d506b" d="m0 0s-.717-1.689.256-2.51c.973-.819 1.434-1.331 2.715-1.537 1.28-.204 1.998-.614 1.998-.614"/></g><g transform="translate(132.08,342.1)"><path fill="#2d506b" d="m0 0s1.126-1.384 2.151-1.179c1.024.205 1.127 1.282 1.127 1.282"/></g><g transform="translate(134.54,340.97)"><path fill="#2d506b" d="m0 0s-.563-1.537.614-1.537c1.178 0 1.64.768 1.64.768"/></g><g transform="translate(137.72,341.28)"><path fill="#2d506b" d="m0 0s3.892-.718 4.046-3.124"/></g><g transform="translate(138.54,342.92)"><path fill="#2d506b" d="m0 0 2.715-.257"/></g><g transform="translate(136.79,340.87)"><path fill="#fff" d="m0 0c-.513 0-2.562 1.178-3.125 2.867-.563 1.692-.205 2.715.512 3.689.717.972 1.998 1.843 3.535.511 1.536-1.332 2.048-2.56 1.485-4.455s-1.229-2.612-2.407-2.612"/></g><path fill="#fff" d="m17.708 212.26-.205 250.16c48.281 13.179 72.959 60.923 110.68 89.725 30.541 25.37 68.19 49.748 109.55 46.443 25.369-3.2248 49.707-15.671 68.258-32.702-6.5702-11.669 16.892-24.82-1.1455-21.496-7.9034-25.163 44.423.40693 43.935-22.604-33.218-5.4831 37.39-15.877 14.583-23.463-26.35 9.8558 1.2354-38.222-8.6147-26.932-14.538-2.9643-11.383-7.6098-4.3237-15.99-9.898-.17928-21.826-.61292-20.424 13.369-9.6861 17.043-27.267 17.661-24.648 1.6747-.39221 11.081-16.452-5.6874-12.447 10.693-5.0872 8.1653-3.5581 17.746-17.478 7.7351-7.134-.28122-3.0352 8.0084-10.573 7.4389 13.178 9.1606-1.9965 22.565-13.593 24.3 10.914 12.481-12.517 8.7948-9.1036 26.264-10.294 17.28-7.1947-9.4593-22.136-.37128 2.3864-9.9722 10.332-22.289-4.0847-11.023-8.0753-9.1235-15.525 19.315-28.928 5.4562 1.6567-8.5402 13.47-8.6882.61435-8.2614 6.6486-21.852-12.515 5.3796-12.37-12.418-6.5416-3.7573-11.631 8.3675-14.35-4.0761-22.295 17.252-11.229-28.897 8.1735-23.951 15.556 1.2058 34.871-8.5843 16.41-19.212-7.2422-10.634 39.102 7.0585 25.639-10.499-26.313-9.528 46.094-.46685 19.437-13.105 10.009-13.394-29.174-2.8859-10.635-20.954-8.9753-8.7696-27.907 3.1271-25.295 8.6922-10.559-4.9977-13.034 20.985-20.134 1.6236-5.0687 8.2321-17.311-9.7535-16.178 6.9251-21.814-13.692 50.945-34.333 18.026-36.471.66396-12.534.81993-12.214-7.2595-5.0424-1.1916-7.1349 2.2932-30.489-5.4443-11.021-17.318-14.447-17.228 36.879-34.256 8.3839-.63388-4.8562-9.3372 13.708-12.66-1.774-.91227-8.7336-18.372-16.566-7.4567-5.7818-5.4742 3.1281-15.811 9.4953-3.1663 11.155-10.382 7.59 10.76 37.538-12.305 35.208-11.3-3.9329-4.1678 14.627-18.962 8.3204 25.162-18.215 1.8199-51.249-1.545-35.909-9.1499 1.6474-21.995 3.6543-26.268 5.5932-7.0432-11.378-35.272-14.546-11.233-19.761 12.193 1.169 29.132 6.3235 25.514-13.127 12.04-.85707 27.418-5.2034 6.4147-11.363-8.1063-6.7321 17.725-7.3702.91656-9.6832-5.6758-9.4214-3.9562-7.028-9.4993-1.5684-1.9759-10.903-7.9285-24.999-10.697-5.6466-9.4891-14.106-22.016 10.437-19.973-12.186 3.7775-28.578 40.653-19.868 60.757-18.286 24.051.55894 47.902 5.5826 67.225 20.989 22.873 15.771 41.751 36.527 64.466 52.5 34.833-12.86 55.208-48.052 89.879-61.212 30.072-23.366 69.353-33.828 107.05-34.374 66.755-.0847 130.49 24.506 189.48 53.731-35.179-22.862-74.713-38.326-115.21-48.794-2.174-14.658 39.112-12.786 11.54-12.676-10.551 6.7347-29.664-3.0982-28.238-.53403-38.912-4.3679 41.685-15.614 36.987-16.566-26.734-8.6703-51.536 24.263-74.345 13.445 8.6482-5.1107 37.438-19.223 10.881-9.8286-5.7616 12.255-41.834 11.217-18.567-2.3619 8.1275-1.1369 35.722-17.929 11.994-8.0581-13.489 5.9294-44.943 33.107-52.074 20.96 9.7337-14.675 32.089-18.538 40.538-32.925-30.429 12.055-50.671 40.201-80.696 52.601-20.396 11.929 5.0452-25.203-10.947-6.4935-13.135 13.256 10.277-15.295-6.6484.64788-19.85 20.631-12.886-4.6174-8.273-12.352-6.9248 10.919-31.282 36.183-18.377 7.4655 7.0191-18.394 37.82-24.471 46.725-33.542-15.173-12.303-64.306 25.655-64.349 25.258-.91495.49184-32.425 26.314-31.243 3.9178-14.758-17.659 8.2758-41.898 23.823-54.806 41.674-31.864 98.958-25.238 145.85-9.5006 44.443 12.662 85.625 34.902 120.34 65.45 20.41 13.838 41.555 42.543 60.72 48.064-7.1009-20.738-36.444-23.679-47.773-42.62-13.874-26.968 47.759-7.3902 40.275-17.531-21.006-7.9839-70.392 10.491-70.325-22.214 26.506-9.7947 53.495 13.304 79.575 2.8127-26.794-3.0559-157.23-19.324-145.96-39.87 45.864-11.134 88.159 19.251 133.65 18.129 20.489-15.556-30.127-8.4897-40.548-12.903-34.267-10.77-71.571-13.511-107.11-7.3765-34.979.085-69.16-9.4581-104.12-9.6092-6.9803-4.9758-36.698-3.8173-51.718 1.8458-1.4489 13.395-12.018 5.4897-17.85 15.755-9.8281-29.372-28.335 33.439-30.484 5.7649-7.0429 10.001-20.529 40.607-32.507 18.431-13.5 16.829-3.4787-25.893 11.633-14.576 11.969-7.2904 2.946-21.923 22.04-20.847 29.658-15.352-21.522-10.021-33.412-10.778-14.766-1.5447-30.476-.55669-35.867 11.42-7.5625-12.389-9.396-1.082-18.448-8.9567-20.683 8.3686-1.2478 16.734-7.6483 32.085-11.166-3.6328-10.293 21.59-25.314 6.3735-2.4252-12.413-14.868 12.629-19.322-6.6061.24833-11.97-10.321.90978-15.803 3.6729 9.0851 22.33-33.487 42.897-27.649 14.684-13.286-1.4492-30.141 19.231-37.364-4.5261-9.274-14.537-4.0564-41.216.64642-48.16-2.8798.0388-5.7597.0776-8.6395.11645z"/><g transform="translate(34.099,420.01)"><path fill="#82b9cd" d="m0 0c-.923-.051-2.356.359-3.381.871-1.024.511-1.434 1.177-1.28 2.662.154 1.487.051 3.023-.512 4.303-.564 1.281-.769 3.279.306 4.047 1.076.768 1.332.513 1.332.513s-.511-2.664.615-5.276c1.127-2.613 2.92-7.12 2.92-7.12"/></g><g transform="translate(56.213,398.76)"><path fill="#e6c25a" d="m0 0c-2.5881 4.6787-10.871 5.6374-13.649 3.505-5.92 10.862-12.1 23.235-11.897 34.122 9.63-12.112 17.109-25.113 27.113-37.535 0 0-1.106-.277-1.567-.092"/></g><g transform="translate(273.36,497.72)"><path fill="#82b9cd" d="m0 0s3.279-2.186 3.005-5.805-4.234-6.76-5.326-5.804c-1.094.956-.069 1.775.955 2.321 1.025.547 2.459 2.732 2.049 4.713s-2.048 2.185-2.322 2.527c-.273.341-.683 1.365-1.161 1.365-8.039-2.3415 2.4337 3.2898 1.639 6.625-.682 1.776-.751 2.868-.341 3.073s3.824-.955 3.415-3.619c-.411-2.664-1.913-5.396-1.913-5.396"/></g><g transform="translate(278.62,493.83)"><path fill="#82b9cd" d="m0 0c-.84192 4.015 7.9078 4.3575 3.7059 9.1229-.67836 6.233 10.159 4.2921 7.087-1.422-1.7372-2.2579.59378-6.7884 2.3413-2.8541.41004 2.5938 3.9406 7.4664 5.4487 2.7573.482-5.9082-6.885-8.671-11.789-7.4332-2.2408.32739-4.6312.75885-6.7937-.17102z"/></g><g transform="translate(290.98,483.73)"><path fill="#82b9cd" d="m0 0c1.4113 2.2767 2.8227 4.5533 4.234 6.83 1.4683 1.0349 3.6372 3.675 5.2457 1.3416 2.0473-2.3015 2.1213-6.4191-.6375-8.2171-1.9169-1.5862-4.3346-.74369-6.4084-.06304-.7926.19226-1.6293.28928-2.4337.10852z"/></g><g transform="translate(305.53,487.82)"><path fill="#82b9cd" d="m0 0c-.34624 2.2486 5.1548 5.8141.32559 6.0211-2.6907 2.6638 2.6795 5.8832 5.1649 6.1305 4.5214-.75465 5.002-6.9699 3.5946-10.456-2.0577-2.8262-6.1142-2.1338-9.085-1.6963z"/></g><g transform="translate(301.98,496.91)"><path fill="#82b9cd" d="m0 0s-1.639-.273-1.639.751.41 1.366.137 2.869c-.273 1.502-.752 4.029-.206 4.78.547.751 2.254 2.458 3.62 2.117 1.365-.342 2.664-1.571 2.595-4.234s-1.776-4.371-2.868-4.644c-1.093-.273-1.093-.888-1.639-1.639"/></g><g transform="translate(281.08,512.48)"><path fill="#82b9cd" d="m0 0c-.71.152-.409 2.801-.546 4.03s.341 3.483 1.297 4.098c.957.615 3.415.888 3.415-1.639 0-2.528-.615-3.894-1.708-5.055-1.092-1.16-1.502-1.638-2.458-1.434"/></g><g transform="translate(271.45,509.27)"><path fill="#82b9cd" d="m0 0c-1.5976.0035343-3.7481.28234-4.1467 2.1648-.56109 1.3679-.63911 2.9855.21579 4.2547.92938 1.6855 1.9117 3.9162.70425 5.7126-.77594 1.2805-1.0767 3.3325.56831 4.0955 1.6526 1.136 3.6972.19638 4.8063-1.2309 1.1932-1.1776 1.8388-2.9792 1.0735-4.5702-.9110-1.3388-.4246-2.7694 1.2305-2.9056 1.2578-.5540 1.9692-2.0394 1.5162-3.3584-.6003-2.5692-3.3718-4.4328-5.9682-4.163z"/></g><g transform="translate(281.49,512.75)"><path fill="#82b9cd" d="m0 0c-.619-.296-1.16 2.049-1.16 3.551 0 1.503.274 3.686 1.503 4.303 1.228.615 3.415 1.091 3.414-1.64s-.615-4.712-3.757-6.214"/></g><g transform="translate(301.98,511.59)"><path fill="#82b9cd" d="m0 0c-3.8409-5.3617-13.183-1.1886-13.031 5.0171-.09713 3.9773.97843 8.9785-2.7526 11.734-2.378 2.3233-7.3312-1.1197-8.6397 2.6204 1.9236 4.8052 7.5587.39478 10.406-1.2693 3.942-1.8757 6.9546-6.0851 5.5639-10.509 1.4391-3.9615 5.3857-.29634 4.1646 2.6577-.3641 4.917 7.3626 6.749 8.0875 1.529.0140-4.6414-2.9882.270-4.7668-.610-.6252-3.2965 4.0093-5.303 2.4463-8.7655-.2874-.9062-.81137-1.7293-1.4768-2.405z"/></g><g transform="translate(262.03,525.32)"><path fill="#82b9cd" d="m0 0c-2.732 0-3.142 3.551-2.322 6.146s1.229 5.328 3.414 5.328 5.191-1.094 5.327-3.416c.137-2.322-1.639-8.058-6.419-8.058"/></g><g fill="#82b9cd" transform="translate(268.04,530.51)"><path fill="#82b9cd" d="m0 0c3.3302 3.1377 10.609 10.635 1.7196 9.7013-6.7456 1.6689 3.8828 11.182-4.1885 7.0783-5.0531-3.6589-6.72-14.742-15.02-10.252-5.9027 1.8089-7.0253 11.604.88889 9.1768 3.654-.3081 1.7167-11.094 5.1993-4.6907-.68367 6.2727-1.6536 12.141-.67091 18.484.05384 4.7996 4.4105 5.2735 4.6703.40078 3.9962-1.2495-1.2666-11.955 3.7247-6.0472 1.2836 5.1002 9.2693 6.9092 7.3077-.38454.79894-1.2151 6.4759-1.9542 4.2945-6.2223-.99203-3.4668-2.1652-4.441 1.6336-2.3966 7.0098 2.6674 2.8199-11.511 7.8738-5.1275 2.4293 3.9629-3.3089 14.438 4.9919 11.628 6.3691-1.7866-3.3476-10.811 2.3827-9.5078.93099 6.8002 11.161 4.0908 6.8197-1.8409.969-8.0088-9.5404-4.6916-14.434-5.5259-6.1008 4.2888-10.234-6.1977-16.68-5.8381-.67837.013282-.90996.9061-.51392 1.3646z"/></g><g transform="translate(294.26,556.59)"><path fill="#82b9cd" d="m0 0c-1.636.102-3.961 2.322-5.19 2.458-1.23.137-1.913 0-2.869 0s-.273.82.409 1.913c.684 1.092 1.913 3.687 3.689 3.414 1.775-.273 3.141-2.049 3.687-3.551.547-1.503 2.459-4.371.274-4.234"/></g><g transform="translate(323.18,481.78)"><path fill="#82b9cd" d="m0 0c-1.461-.134-4.917.614-5.327 2.356-.409 1.741.205 3.073 1.639 4.097 1.435 1.025 3.176.819 4.201-1.024 1.023-1.845 1.741-5.225-.513-5.429"/></g><g transform="translate(333.22,464.16)"><path fill="#82b9cd" d="m0 0c-.625 0-.718 4.917-1.127 6.351-.41 1.434-.923 1.639-2.152 1.639s-1.639 1.025-.409 1.843c1.229.82 5.223 1.333 5.941-2.765.717-4.097-.718-7.068-2.253-7.068"/></g><g transform="translate(343.98,470.51)"><path fill="#82b9cd" d="m0 0c-1.113-.197-1.638.615-3.175.512-1.537-.102-2.254.820-1.639 2.458.615 1.64 2.869 3.074 5.019 2.254 2.152-.819 3.176-2.049 3.484-3.381.307-1.331-1.946-1.536-3.689-1.843"/></g><g transform="translate(351.05,451.87)"><path fill="#82b9cd" d="m0 0c-.922 1.332-1.127 3.995-1.946 4.917-.821.922-2.459 1.64-3.995 1.537-1.538-.102-3.893.614-3.996 1.639-.102 1.024.717 2.971 2.152 2.868 1.432-.103 5.223-.614 6.453-2.151 1.229-1.536 2.355-2.356 2.458-3.893.103-1.536-.481-5.847-1.126-4.917"/></g><g transform="translate(342.54,479.63)"><path fill="#82b9cd" d="m0 0c-1.092 0-.819 3.005-.341 4.439.479 1.435 1.229 4.029 3.415 4.029 2.184 0 1.638-2.526 1.228-3.756-.409-1.229-1.365-4.712-4.302-4.712"/></g><g transform="translate(336.33,478.74)"><path fill="#82b9cd" d="m0 0c-1.365 0-4.232 1.502-4.575 3.961-.341 2.459.682 2.663.956 3.688.273 1.024-.204 2.527-1.365 2.663-1.162.137-2.118.137-1.844.888.272.751.819 3.962 2.73 4.235 1.912.272 3.825-.821 3.825-2.801s-.137-5.259.82-4.985c.956.273 2.116 1.776 2.8 3.142.682 1.365 1.774 2.321 3.005 2.185 1.229-.137 2.526-.888 2.937-1.775.408-.889-1.3-.889-2.324-1.025-1.025-.136-3.959-.820-4.028-1.844s.069-3.825.069-5.122-.888-3.21-3.006-3.21"/></g><g transform="translate(349.31,492.88)"><path fill="#82b9cd" d="m0 0c-1.092 0-2.457 1.707-3.823 1.707s-2.254-1.024-2.8-.409c-.548.615-.548 1.844.477 2.596 1.024.75 1.776 1.364 1.776 1.364s.411 1.162-1.297 1.162-2.597.068-2.119.888c.479.819.957 2.185 2.801 2.185s4.782-1.503 5.054-3.21c.273-1.707.683-2.185.887-3.619.205-1.435.069-2.664-.956-2.664"/></g><g transform="translate(328,498.17)"><path fill="#82b9cd" d="m0 0c-.967-.966-2.97.204-3.994-.308-1.026-.512-4.918-2.97-5.431-2.561-.512.41.309 1.537.309 2.972 0 1.433-.512 2.868.921 4.814 1.434 1.946 4.917 2.561 6.557 1.024 1.638-1.536 2.356-5.224 1.638-5.941"/></g><g transform="translate(330.25,498.37)"><path fill="#82b9cd" d="m0 0c-.726 0 .307 2.562.307 4.406 0 1.843.205 2.663.205 4.302s.922 2.664 2.356 2.356c1.434-.307 1.946-1.639 2.765-2.151s2.561.409 3.893-.615 1.332-3.483-.818-4.61c-2.153-1.126-4.61-2.459-5.84-2.97-1.229-.512-1.845-.718-2.868-.718"/></g><g transform="translate(311.81,505.54)"><path fill="#82b9cd" d="m0 0c-.803-.161-2.048 2.458-3.892 2.766-1.844.307-2.664 0-3.688.307s-1.332 1.332-.615 1.844 1.947.82 2.356 1.639c.41.82 1.435 3.278 3.688 2.766 2.254-.512 3.586-2.356 3.586-3.688s-.410-2.561-.820-3.176c-.410-.614-.103-2.355-.615-2.458"/></g><g transform="translate(323.39,510.46)"><path fill="#82b9cd" d="m0 0c-3.4746.72849-9.7576 3.1093-8.2404 7.5261 2.5073 3.2952 9.1535.86691 8.477-3.3986-.12478-5.4597 5.6548 1.4206 1.8541 3.4267-3.3782 1.7144-3.1353 7.376 1.1875 7.2148 3.0095.09652 2.3504-7.4957 5.0092-2.692.86971 2.5908-5.836 3.712-1.0156 6.0979 3.313.91294 3.6469-5.3376 7.5355-3.0543 2.0002-3.6851 4.5421-.78912 6.5016.74292 3.1632.26971 2.3099-1.873-.06186-2.0525-2.346-2.6168-5.3999-3.375-8.6886-3.4527-3.5669-2.436-5.4053-6.7674-9.0765-9.1506-1.0349-.69958-2.2048-1.272-3.4815-1.2083z"/></g><g transform="translate(279.14,557.17)"><path fill="#82b9cd" d="m0 0c-4.1933 1.7281-5.9418 7.0313-9.9421 8.7068-.5549 4.298 2.7572 9.5515 6.1963 11.524 4.753-.85326 1.4249-6.1803 1.7382-9.1226 2.1026-5.3772 3.6883 2.592 6.2244 3.369 4.3924-1.26-2.4275-6.2574-1.7816-9.457.3009-2.0612-.2550-4.2456-2.4353-5.0196z"/></g><g transform="translate(267.05,570.49)"><path fill="#82b9cd" d="m0 0c-1.742 0-1.947 1.435-3.278 1.435-1.332 0-2.356 2.253-2.152 3.892.205 1.639 2.459 3.381 4.406 3.277 1.945-.102 3.38-2.663 3.38-4.302 0-1.638-.615-4.302-2.356-4.302"/></g><g transform="translate(247.69,549.18)"><path fill="#82b9cd" d="m0 0c-1.127 0-1.742 1.434-1.844 2.458-.103 1.025-.103 3.791.922 4.61s2.868 1.332 3.892.512c1.025-.819 2.254-2.049 2.357-3.278.102-1.229-1.127-2.868-1.947-3.483-.819-.615-1.639-.819-3.38-.819"/></g><g transform="translate(251.92,558.71)"><path fill="#82b9cd" d="m0 0c-1.138-.228-2.253 1.093-3.688.82-1.434-.274-2.936-1.025-3.278-2.117-.342-1.093-1.024-2.323-1.707-2.254 0 0-1.707 1.912-1.366 3.209.341 1.299 1.024 2.732 1.98 2.937s.751.547.411.888c-.342.342-1.299.683-1.845.205s-1.98-1.434-2.799-.683c-.82.751-1.435 2.185-.889 3.483.547 1.298 2.528 1.708 3.688 1.708 1.161 0 2.254-.956 3.21-1.23.956-.273 2.391-.068 3.825-.205 1.434-.136 3.824-1.434 3.96-3.619.137-2.185-.819-3.005-1.502-3.142"/></g><g transform="translate(247.75,567.73)"><path fill="#82b9cd" d="m0 0c3.2603 4.6197-.059443 11.227-2.4924 15.267-2.2608.06309-6.5251-.97067-4.5597 2.9678 2.2201 4.6992 10.601 4.1839 12.72-.11363-.97272-2.0966-5.6878-7.94-.25573-6.8418 3.1342 1.5167 1.0579 10.809 5.7361 7.4293 2.6765-5.322-3.2574-7.8189-5.3349-11.419-.6794-2.8878 4.0685-6.0699-1.27-6.8145-1.5065-.23815-3.059-.07343-4.5428-.47435z"/></g><g transform="translate(248.23,559.53)"><path fill="#82b9cd" d="m0 0c-1.514-.083-2.731-.958-3.278-2.117-.546-1.16-1.093-2.665-1.707-2.254-.615.411-2.049 2.187-1.434 3.826.614 1.639 2.39 2.664 3.141 2.595s-1.366 1.366-2.185 1.093c-.82-.273-.956-1.162-2.391-1.162-1.434 0-2.458 2.252-1.639 3.687.82 1.436 3.688 2.255 5.054 1.368 1.366-.889 3.141-1.094 4.507-1.094 1.367 0 3.826-.067 4.577-2.117.750-2.048.477-4.165-.684-4.575s-2.732.817-3.961.750"/></g><g transform="translate(237.92,569.64)"><path fill="#82b9cd" d="m0 0c-3.8202.42597-2.4431 5.7157.49303 6.1465.50996 2.9313-4.6556-1.5971-4.7113 1.2298.72556 1.558.62895 3.3103-.35778 4.2532 1.2898 2.9193 5.3575 1.6863 5.7284-1.1644 2.3951-1.0897 7.3587-1.5387 4.9863-5.5016-1.6366-1.794-3.4018-5.0404-6.1386-4.9644z"/></g><g transform="translate(239.15,551.81)"><path fill="#82b9cd" d="m0 0c-3.7485 3.736-9.3216-.98401-13.699 1.5875-4.3318.86401-5.5713 5.5881-8.1866 8.4809-3.4165 4.1981 5.1409 8.8618 5.9507 3.1934.17988-3.4916 3.5946-3.9312 3.8633-.14008-.57543 3.3671 4.4695 8.3011 5.7795 3.2706-1.502-3.4248-5.7407-8.7256.70617-9.854 2.5427-.92045 6.9381-3.3003 5.5864-6.5384z"/></g><g transform="translate(207.67,557.21)"><path fill="#82b9cd" d="m0 0c-1.093 0-1.502 2.047-1.502 3.482 0 1.434 1.639 1.98 3.073 1.98s2.8-2.117 2.8-3.073-2.323-2.389-4.371-2.389"/></g><g transform="translate(208.62,553.04)"><path fill="#82b9cd" d="m0 0c.58214 3.6808 5.3782 2.97 7.9508 2.0468 2.9422-.8666 5.3752-5.3047 2.4522-7.5216-1.5482-1.0468-4.9834-4.8742-5.2291-1.055.5650 1.8839 1.5469 4.4712-1.4536 4.3752-1.2911.3235-3.3928.5988-3.7203 2.1547z"/></g><g transform="translate(223.99,528.87)"><path fill="#82b9cd" d="m0 0c-.478 0-.546 1.639-.819 2.322s.273 1.503-1.16 2.323c-1.436.819-3.279 2.39-3.962 2.867-.684.478-2.117.342-3.21 0-1.093-.341-1.503 0-1.503.957 0 .956 1.23 2.799 3.484 2.389 2.253-.409 2.663-1.706 3.892-2.458 1.23-.751 3.62-3.073 3.893-4.507.273-1.435.136-3.893-.615-3.893"/></g><g transform="translate(211.56,540.48)"><path fill="#82b9cd" d="m0 0c-.476-.476-2.321-.479-3.073.136s-2.937 3.211-3.825 2.527c-.887-.683-1.229-1.366-1.911-.888-.684.478-1.639 3.005-2.664 4.576s-1.639 2.322-.478 3.483c1.161 1.162 2.8 2.596 4.234 1.981 1.434-.614 1.571-1.639 1.229-2.049-.341-.409-1.366-1.433-1.025-2.048.343-.615 1.64-.683 3.006-1.025 1.365-.342 3.278-.478 4.371-2.527 1.092-2.049.682-3.62.136-4.166"/></g><g transform="translate(192.44,534.47)"><path fill="#82b9cd" d="m0 0c-.177-.503-1.98 1.571-3.073 1.571s-1.707-1.092-2.185-.752c-.479.342-1.162 1.298-.342 2.049.819.751 2.8.957 4.439 0 1.639-.956 1.57-1.707 1.161-2.868"/></g><g transform="translate(188,523.2)"><path fill="#82b9cd" d="m0 0c-.297-.713-1.571 2.185-2.186 3.278-.614 1.093-1.024 2.118-1.706 2.118-.684 0-1.777.409-.957 1.433.819 1.025 2.254 1.093 3.551-.546 1.298-1.639 2.323-3.004 2.117-4.165-.204-1.162-.477-1.299-.819-2.118"/></g><g transform="translate(179.6,527.77)"><path fill="#82b9cd" d="m0 0c-.764-.327-2.254.82-3.278.342-1.024-.479-2.322-1.844-2.322-3.006 0-1.16.137-2.185-.478-1.843-.614.341-2.184.819-2.732.341-.546-.478-1.229-.137-2.253.615-1.024.751-1.844 1.16-2.527.751-.683-.41-2.937-3.005-3.619-2.663-.684.341-.889 3.483-2.118 4.439s-1.844 2.936.547 3.346c2.39.409 5.053-.273 6.351-.615 1.297-.341 2.8-1.365 3.414-2.185.615-.819.957-.546.957-.546s1.297 3.619 2.937 4.302c1.639.683 3.141.41 4.438-.614 1.298-1.025 1.64-2.254.683-2.664"/></g><g transform="translate(182.06,537.61)"><path fill="#82b9cd" d="m0 0c-4.216.88692-6.4559 7.1889-2.6274 9.9096 1.2293 2.8064 4.6134 6.2962 7.5991 3.4344 1.9979-2.5304 3.5752-.33526 2.3765 2.0198.53756 4.0856 7.6396 2.9803 7.1292-1.0192-.768-3.998-5.7196-2.597-8.5015-4.001-3.829-.8940-2.2346-5.5981-3.4196-8.4262-.0370-1.2882-1.3812-2.0198-2.556-1.9178z"/></g><g transform="translate(178.64,551.81)"><path fill="#82b9cd" d="m0 0c-1.024 0-.683 1.98-.75 2.731-.069.752-1.504 1.229-2.323 1.503-.819.273-2.936.409-2.663 1.776.273 1.366 1.298 2.185 3.892 2.595 2.595.410 6.079-.206 5.6-3.006-.478-2.8-1.298-3.277-1.502-4.097-.205-.819-.479-1.502-2.254-1.502"/></g><g transform="translate(174.68,544.44)"><path fill="#82b9cd" d="m0 0c-.741.123-3.347.888-4.166 1.775-.82.888-1.435 1.366-1.024 2.596.409 1.228 1.912 1.775 3.482 1.912 1.571.136 2.596-.205 2.527-1.435-.068-1.229-.341-1.979-.204-3.209.136-1.229.205-1.776-.615-1.639"/></g><g transform="translate(171.4,534.53)"><path fill="#82b9cd" d="m0 0c-2.84-1.5583-6.4378 1.5779-8.9452-1.2166-4.7735-1.3393-8.1485 6.508-2.6428 7.5909 2.0723-.54248 5.5646-4.324 5.9233.10467 1.9758 3.9906 8.093 1.9618 8.4917-2.1335.9218-2.1819-.0549-4.8369-2.827-4.3455z"/></g><g transform="translate(173.79,524.02)"><path fill="#82b9cd" d="m0 0c-3.5648-1.0035-7.324 2.0796-10.522-.81284-3.5158.50792-5.5552 7.5116-.54171 7.3087 4.0732 1.0271 8.2245-6.3196 10.697-.61281 1.3843 4.5828 9.5012-.69242 4.0965-2.0003-2.9654 1.3842-3.0339-2.0568-3.7299-3.8827z"/></g><g transform="translate(159.52,520.6)"><path fill="#82b9cd" d="m0 0c-.068-.41-1.161-1.161-1.708-.751-.545.409-1.775 3.277-3.892 2.8-2.117-.478-3.756-1.776-3.961-2.732s-.751-1.843-1.229-1.434c-.479.41-1.639 2.459-1.639 3.415 0 .955.614 3.004 2.663 3.415 2.049.409 3.756.341 5.327.067 1.571-.273 2.937-.751 3.756-2.117.819-1.365.683-1.775.819-2.39"/></g><g transform="translate(181.92,471.59)"><path fill="#82b9cd" d="m0 0c.372-.622-4.456-.257-5.634 2.356-1.178 2.612-1.435 4.2-1.127 4.712.307.512-.051.666-.564.461-.511-.205-2.253.051-1.946 1.486.307 1.433 1.742 2.458 3.791 2.151 2.048-.307 4.404-1.691 4.814-3.586s.615-2.458-.154-2.458c-.767 0-1.741.307-1.895.103-.153-.206-.717-1.128.051-1.742.769-.615 2.408-1.076 2.408-1.076s-.051-1.895.256-2.407"/></g><g transform="translate(151.44,458.58)"><path fill="#82b9cd" d="m0 0c-.566-.016-2.305-.513-3.022 0-.717.512-1.742 1.024-1.024 2.407.716 1.383 1.332 2.203 1.177 2.919-.153.717-.87 1.589-.768 3.023.102 1.433-1.075 3.277-.922 4.251.154.973.922 1.382 1.588 1.332.666-.052.973-1.794 1.281-2.408.307-.615.716-2.356 1.28-2.715.563-.358 2.202-2.253 2.049-3.226-.154-.973-.615-1.588-.257-2.459.359-.871.461-3.073-1.382-3.124"/></g><g transform="translate(154.77,454.58)"><path fill="#82b9cd" d="m0 0c1.9622 7.3881.15963 15.231-3.5228 20.818 5.6976 6.4548 11.9-3.9894 14.951-8.5105 6.0229 1.0657 5.0077-3.9461 3.1732-8.0429 1.7527-.7589 11.642 4.4129 5.8717-.56911-6.424-3.1891-14.18-.0664-20.473-3.6956z"/></g><g transform="translate(229.2,449.51)"><path fill="#82b9cd" d="m0 0c-.548.129-1.639.819-1.844 2.305-.205 1.485-.052 3.226.615 4.097.666.871 1.587 1.792 2.919 1.741s1.844-.615 3.227-.615 4.098-.767 4.969-2.099c.870-1.332 1.229-3.586 1.024-4.251-.205-.666-.922-1.025-1.383-.154s-1.588 3.073-2.663 3.637c-1.076.563-2.254.256-3.381-.410s-2.049-.718-2.254-1.588c-.205-.871-.358-2.869-1.229-2.663"/></g><g transform="translate(226.22,445.92)"><path fill="#82b9cd" d="m0 0c-.717 0-3.022-.358-3.483-.46-.461-.103-.512.716-.512 1.843s-.205 3.842-.563 5.224c-.359 1.384-.718 2.459.307 2.459 1.024 0 1.895-1.895 2.459-2.407.563-.513 2.253-2.203 2.253-3.227s.461-3.432-.461-3.432"/></g><g transform="translate(218.39,444.49)"><path fill="#82b9cd" d="m0 0c-.755-.27-2.049-.308-2.766.46-.717.769-2.971.974-3.483 2.152s-.666 2.151.205 2.56c.871.411 2.561.718 3.79.564 1.229-.153 1.229.307 1.127.922s-.769 2.202.205 2.1c.973-.102 1.998-1.793 2.1-2.202.102-.410 1.588-1.536 1.383-2.715-.205-1.178-.718-1.229-1.332-1.178s-1.127-.102-.871-.820c.257-.717.359-1.588-.358-1.843"/></g><g transform="translate(211.83,437.73)"><path fill="#82b9cd" d="m0 0c-.082-.546-2.048-.359-3.432-.154-1.382.204-2.97 1.485-2.304 2.151s2.356.205 3.431 1.024c1.076.82 2.459.615 3.177.205.716-.410.921-1.332.921-1.332s-1.639-.870-1.793-1.894"/></g><g transform="translate(206.3,443.47)"><path fill="#82b9cd" d="m0 0s-.256 2.151-1.587 2.664c-1.332.512-2.459 1.024-2.101 2.356.359 1.332 2.408 2.253 3.38 2.766.974.512 3.074.768 3.279-1.845.205-2.612-.615-4.712-2.971-5.941"/></g><g transform="translate(194.62,448.95)"><path fill="#82b9cd" d="m0 0c-1.639 0-3.944.205-4.2 1.69-.257 1.486-1.383 2.152-1.588 4.047s-.308 4.097 1.69 4.046c1.997-.052 2.715-2.561 3.842-3.278s2.151-2.458 2.305-3.636c.154-1.179.358-2.869-2.049-2.869"/></g><g transform="translate(184.28,445.05)"><path fill="#82b9cd" d="m0 0c-.819 0-3.483 2.766-4.303 2.766-.819 0-1.638-2.152-2.56-2.152s-2.305 1.486-1.741 2.92c.562 1.434 1.587 3.124 3.021 3.278 1.434.153 1.844.819 1.332 1.434-.513.615-.615 1.946-2.049 1.895s-3.329-.665-3.329.256c0 .922.819 2.561 2.509 2.971s3.022.205 3.381-.359c.359-.563 1.947-1.946 2.92-3.022.973-1.075 2.561-2.099 2.458-4.149-.102-2.048-.768-2.254-.870-3.124-.103-.871.460-2.714-.769-2.714"/></g><g transform="translate(160,445.14)"><path fill="#82b9cd" d="m0 0s.545 1.161.682 2.527.82 2.048 1.844 2.8c1.025.751 2.801 3.619 3.961 3.005 1.161-.615 2.05-2.664 1.298-3.894-.751-1.229-1.639-2.525-.410-2.731 1.229-.205 2.391.615 3.142 2.049s1.161 2.185 1.161 2.185 2.459-.888 2.117-2.936c-.342-2.049-3.073-4.167-4.849-4.371-1.776-.205-3.073-.614-3.756.137-.683.750-1.57 1.024-2.732.683-1.161-.342-2.8-.683-2.458.546"/></g><g transform="translate(148.59,447.94)"><path fill="#82b9cd" d="m0 0c-5.4602 4.4439-9.0861-5.0177-5.3214-8.6192.74159-5.8905-1.8691-15.898-9.5588-14.185-7.708-.11057-9.017 17.38-1.0196 12.829 3.7333-7.9653 12.334 3.5658 6.7034 8.0446-2.332 7.6285 14.906 9.0183 9.2697 1.9601l-.073117-.029545z"/></g><g transform="translate(161.91,400.41)"><path fill="#82b9cd" d="m0 0c-6.9541-.77489-15.482 4.7332-13.233 12.506-.07584 5.2098-9.6398 7.5797-3.4327 12.532 3.6575 3.7428 9.2508.32261 8.3133-4.0422 1.6323.77594 5.6252 7.4759 4.5418 1.9016-4.0171-3.4588-9.4922-7.6278-5.0631-12.888-.51664-3.809 2.3879-7.07 4.2241-2.0109 4.5331 3.7398 9.8523-5.6464 4.65-7.9974z"/></g><g transform="translate(173.04,409.97)"><path fill="#82b9cd" d="m0 0c-2.6831.48571-4.6486 3.5048-7.6407 2.1625-2.5507.54563-.93356 2.6591.80371 2.9026 2.8151 2.0457-.84408 6.7593 2.7752 8.0672 4.109.98941 4.5404-3.8854 5.1742-6.6903.6058-2.2756.5903-4.6468-1.1124-6.4416z"/></g><g transform="translate(110.21,392.08)"><path fill="#82b9cd" d="m0 0s1.23 3.551-.34 4.302c-1.571.752-4.85 1.365-5.191 1.707-.342.342.820 1.229 2.731 1.981 1.913.752 4.645 1.23 5.396-.069.751-1.298 1.571-7.239-2.596-7.921"/></g><g transform="translate(108.98,404.44)"><path fill="#82b9cd" d="m0 0c-.987-.274-1.571.888-1.98 1.708-.41.819-2.05 1.57-2.05 2.526 0 .957-.546 2.118.41 3.552s3.346 1.776 4.234 2.185c.889.409 1.639.956.478 1.024-1.16.069-2.457-.477-3.004.137-.547.615-.274.615.477 1.161.752.547 1.025 1.571 1.981 1.503.957-.068 4.44-1.162 4.508-3.005.068-1.844-.342-3.553-1.093-4.303-.752-.751-1.366-1.639-2.254-1.297-.888.340-1.843.751-1.843-.069 0-.819 1.433-1.229 1.979-2.049.548-.820.615-2.39-1.843-3.073"/></g><g transform="translate(133.16,408.4)"><path fill="#82b9cd" d="m0 0c-.533.533-3.073 1.298-4.029 1.775-.956.478-3.688 1.435-5.532.82s-6.352-1.161-7.308-1.571-1.775-.273-1.297.684c.478.956 1.57 2.731 1.57 4.301 0 1.571.069 3.824-1.229 4.235-1.298.41-2.869 1.365-2.322 3.073.547 1.707 1.707 2.731 1.024 4.234-.682 1.503-1.365 2.526-.409 3.415.956.888 2.458 2.253 3.141 3.688.683 1.434 2.185 1.707 3.415 1.229 1.229-.478 2.118-2.8 1.503-3.893s-.683-2.117-1.161-2.253c-.478-.137-1.776-1.025-2.049-1.776-.274-.752-.478-1.707.41-2.595.887-.888 2.186-1.981 1.844-3.347-.342-1.365-1.639-1.296-1.435-2.185.206-.887 1.025-1.434 2.323-.887 1.297.546 2.185 1.911 2.594 3.345.41 1.436.889 3.141 3.142 2.937 2.254-.205 3.688-3.278 3.825-4.302.136-1.025-.137-1.98-.41-3.005-.274-1.025-.957-2.799 0-2.868.956-.069 1.844.887 2.527 1.502s2.253-.410 2.595-1.502c.341-1.094.273-2.323-.479-2.937-.751-.615-1.365-.683-1.433-1.366-.069-.684-.205-1.367-.820-.751"/></g><g transform="translate(136.85,454.43)"><path fill="#82b9cd" d="m0 0c-.522 0-.819 1.332-.717 2.458.103 1.127.717 2.459-.205 2.562-.921.102-.819.614-.205 1.434.615.818.41 3.175-1.024 3.38s-2.766-.615-2.663.41c.102 1.024 1.946 3.277 3.482 3.483 1.537.204 3.791.512 4.2-1.332.410-1.844 1.64-6.864.512-9.118-1.126-2.253-1.434-3.277-3.38-3.277"/></g><g fill="#82b9cd" transform="translate(115.85,436.81)"><path fill="#82b9cd" d="m0 0c-13.494 2.1142 5.7552 21.749-11.409 23.604-9.9906 7.5204-21.896-16.477-26.505-1.4378-3.6918 8.8416 16.261 16.992 7.2444 4.6643 6.9522 1.9235 17.238 18.89 28.638 21.524 11.228 2.0601 4.4978-13.666.64523-11.996.95634-4.5786-12.891-9.6383-1.3021-8.8215 7.5965-.31225 10.504-13.245 18.612-10.263-2.3522-2.8114-11.675-7.1041-5.0551-10.595-4.7537-.23377-5.9826-6.8558-10.87-6.6805z"/></g><g transform="translate(42.242,436.76)"><path fill="#82b9cd" d="m12.754-18.286c3.187 17.734-10.88 18.799-9.1166 12.326.53402-11.114-6.5937 1.7441-12.176 2.1477-7.0122 5.2239 15.178 9.8045 3.5894 13.221-15.221-.6524-3.2781 20.829 6.6479 11.965 13.912-22.407-.15892-1.259 11.343-1.4266 2.087-15.616 14.643-9.129 14.784-9.59.679-13.857-6.368-18.788-15.072-28.643z"/></g><g transform="translate(17.401,422.93)"><path fill="#82b9cd" d="m0 0v2.663s1.435.512 1.383 1.127c-.051.614-1.383.103-1.383.614v1.998s2.049 2.561 4.507 2.253c2.459-.307 3.995-2.202 3.995-3.38s-1.28-3.585-2.304-3.636c-1.025-.052-2.049-.666-2.766-.922-.717-.257-2.919-.359-3.432-.717"/></g><g transform="translate(26.16,399.52)"><path fill="#82b9cd" d="m0 0s-.563-2.1-2.049-2.1c-1.485 0-1.895 2.306-1.793 3.689.103 1.383.103 3.226-.102 4.456-.205 1.228-1.178 1.537-1.588.666-.410-.872-1.127-2.817-1.742-4.149-.613-1.333-1.382-1.896-1.382-1.896v10.552s2.1 2.356 4.405 1.997c2.304-.358 4.046-1.28 4.302-2.868.256-1.587-.410-3.022-.666-3.995s-1.229-3.585.615-6.352"/></g><g transform="translate(35.686,359.46)"><path fill="#82b9cd" d="m0 0c-.158-.436-1.69.461-3.073 0-1.383-.46-3.227-1.229-3.278-.718-.051.514-.256 2.767 0 3.946.256 1.177.512 2.561 2.202 2.662 1.69.102 2.408-2.1 3.074-3.278.666-1.176 1.28-2.049 1.075-2.612"/></g><g transform="translate(17.401,349.12)"><path fill="#82b9cd" d="m0 0v15.827s.769 2.458 2.664 1.894c1.895-.562 3.175-2.918 3.995-3.688.819-.767 1.537-.973 1.69-2.202.153-1.228.153-5.07-.819-6.453-.973-1.383-3.023-3.483-4.61-4.302-1.588-.820-2.92-1.076-2.92-1.076"/></g><g transform="translate(17.401,370.02)"><path fill="#82b9cd" d="m0 0v3.177s.922 1.69 2.562 1.741c1.639.052 4.045-.716 4.507-2.305.461-1.587.101-2.765-.154-3.534-.256-.767-1.435-1.229-1.998-.767-.563.459-.922 2.867-2.459 2.867-1.536 0-2.458-1.179-2.458-1.179"/></g><g transform="translate(26.723,368.68)"><path fill="#82b9cd" d="m0 0s1.383 1.28 1.485 3.022c.103 1.741.307 3.585 1.384 3.996 1.075.409 2.151.255 2.509-.769.359-1.024.717-1.589 1.332-2.766s1.229-2.817.460-2.817c-.768 0-2.356 1.537-3.226.819-.871-.716-1.537-1.28-2.407-1.433-.871-.154-1.537-.052-1.537-.052"/></g><g transform="translate(51.564,354.45)"><path fill="#82b9cd" d="m0 0c-.647-.324-1.844 1.64-3.125 1.69-1.28.053-4.096-.153-4.506.564-.411.717.717 3.176 1.843 4.097 1.127.923 4.303.821 5.122-.615.820-1.434 1.486-5.325.666-5.736"/></g><g transform="translate(19.552,377.65)"><path fill="#82b9cd" d="m0 0c-.794.157-2.202.665-1.843 1.433.358.769 1.024 1.999 1.075 3.125.052 1.127.82 3.277-.102 3.38s-1.23-.103-1.23-.103v4.252s1.23 1.844 1.947 1.792 1.537-2.457 1.537-3.277c0-.821.102-2.409.204-3.74s-.256-4.865-.461-5.429c-.205-.563-.103-1.639-1.127-1.433"/></g><g transform="translate(23.343,378.06)"><path fill="#82b9cd" d="m0 0c-1.29 0-2.203.462-1.332 1.383.871.923 2.715 2.356 2.817 3.381.103 1.024.513 2.561 1.69 3.432 1.179.87 1.997 1.177 3.227.615 1.23-.564 3.124-2.51 3.279-4.61.152-2.101-.871-3.329-2.203-3.483-1.332-.155-2.971.819-4.712.154-1.742-.666-1.947-.872-2.766-.872"/></g><g transform="translate(42.857,363.36)"><path fill="#82b9cd" d="m0 0c1.7249 3.8995-9.7172 8.1662-2.741 9.7894 7.8804-1.4354 6.2403 9.6916-.97628 7.921-6.2556 1.5983-3.9479 12.876 1.3393 15.245 4.3775 2.6033 4.2909-2.1636 3.9068-4.8631 2.2038 1.122 2.628 6.1283 6.9363 3.3085 3.9197-3.4649 9.6912 6.424 12.012-.09298-5.7966-.59794-8.3387-8.1043-7.0957-13.98-.13165-7.871-5.1676-16.059-13.381-17.328z"/></g><g transform="translate(58.582,243.61)"><path fill="#82b9cd" d="m0 0c-.881-.272-.205.307-1.024 2.867-.819 2.562-2.458 3.279-3.893 3.177-1.434-.103-5.019-1.845-5.019-1.845s-1.332 1.845-1.332 2.562.717 1.023 1.64 1.023c.921 0 1.74 1.026 3.277 1.332 1.537.309 3.073 2.049 4.815.409 1.741-1.638 3.38-3.687 3.38-5.531s-.512-3.586-1.844-3.994"/></g><g transform="translate(87.47,271.16)"><path fill="#82b9cd" d="m0 0c-3.4231 9.4045-11.738 17.353-22.358 15.044-8.073-2.2142-7.6381 9.1628-10.284 8.5598-8.5546-6.0773-14.229 1.1252-21.625 2.0885-5.1913 11.762 13.613 14.295 20.657 9.0573 8.0996-3.9728 11.329-16.734 21.044-11.667 6.1176-4.9034 7.3048 2.9676 12.253 3.9586-5.2321 6.684-2.3281 21.409 8.0435 14.268 8.0513-8.7628 3.6706-20.632-1.9736-29.278-2.9343-3.2613-1.977-10.3-5.7555-12.031z"/></g><g transform="translate(95.392,262.38)"><path fill="#507398" d="m0 0c2.106-.257 3.278-1.095 6.829-1.231 3.551-.137 6.556 1.297 9.698 7.581 3.141 6.283 1.229 13.386-.752 16.391s-3.346 1.775-5.122 1.707c-1.775-.069-1.639-7.582-3.21-11.268-1.57-3.689-7.58-3.961-9.083-4.645-1.502-.683-4.369-3.346-4.369-3.346s-1.298-.137 1.365-1.298c2.664-1.16 1.845-4.506 1.845-4.506s.547.886 2.799.615"/></g><g transform="translate(104.2,238.96)"><path fill="#82b9cd" d="m0 0c-.793.097 0 1.161.478 2.118.478.955 1.502 1.775.137 3.756-1.367 1.979-1.776 2.595-3.279 2.185-1.502-.41-3.004-.887-3.004.545 0 1.435 1.297 2.528 2.116 3.006.82.478 3.824 2.185 4.098.955.273-1.228 1.571-2.321 2.732-3.21 1.161-.886 2.527-3.278 1.502-5.326-1.024-2.049-1.98-4.369-4.78-4.029"/></g><g transform="translate(116.22,258.76)"><path fill="#82b9cd" d="m0 0c-1.122.31-2.868 3.074-1.57 4.577 1.297 1.502 3.21 2.457 4.097 3.072.888.615 2.185 1.025 3.346.206 1.162-.821 2.869-3.484 1.502-4.986-1.364-1.503-3.414-3.961-7.375-2.869"/></g><g transform="translate(92.114,260.13)"><path fill="#82b9cd" d="m0 0s.615 1.708.341 2.187c0 0 2.117.272 4.576-.343 2.458-.615 7.443-1.571 9.697.273s5.873 7.376 6.078 8.878c.205 1.504.683 3.621 1.025 3.757.341.136.75 1.298.546 1.844-.205.546-1.025.82-1.093 1.708-.068.886-.068 1.364.956 2.526 1.025 1.161 2.323 1.57 3.962.956s2.253-1.775 3.62-1.775c1.365 0 .478 1.708.136 2.254-.341.546-2.254 3.003-3.824 3.277-1.571.274-3.142.341-4.167-.478-1.024-.819-1.843-2.048-1.843-2.048s-.956 1.981-1.639 2.527c0 0 2.116 1.161 2.39 2.186.273 1.024.273 2.322 1.843 2.732 1.571.408 2.322-.273 3.756-.273s3.757-.957 4.508-2.391 1.435-3.346 3.346-5.464c1.912-2.115 1.981-5.122 1.503-6.762-.479-1.637-.888-2.664.341-1.98 1.23.682 2.732.82 3.347 1.98.615 1.161 1.434 1.776 2.731 1.366 1.298-.411 3.893-3.754 1.298-8.537-2.596-4.781-6.351-5.395-7.513-5.327l-1.16.069s.204 1.913-1.23 3.074c-1.434 1.159-3.346 2.867-4.03 3.483-.682.614-1.98.546-2.936.546s-2.048-1.162-3.483-1.641c-1.434-.477-2.936-.885-3.687-2.388s-3.552-5.737-6.147-6.216c-2.596-.479-6.693-1.435-8.264-1.639-1.57-.206-1.434.615-2.594.955-1.162.342-2.39.684-2.39.684"/></g><g transform="translate(143.81,260.68)"><path fill="#82b9cd" d="m0 0c-3.142-.011-6.146 1.98-6.146 4.507 0 2.528 2.322 4.167 3.961 4.167s3.005-1.503 2.868-3.347-.068-3.21.819-2.936c.888.273 2.733 1.706 2.459 4.437-.273 2.734-2.322 3.757-1.707 6.012.614 2.253 3.072 3.14 4.849 2.663 1.775-.479 2.868-1.093 4.028-1.641 1.161-.546 2.46-2.935 2.118-4.78-.342-1.844.341-2.117.956-1.639.614.478 2.253 2.049 1.639 5.462-.615 3.416-2.39 6.354-1.707 7.721.682 1.366 2.867 2.389 3.482 1.911.615-.477 2.186-.273 3.142-.614s2.732-1.981 3.141-2.868c.41-.888 1.776-1.025 2.801-1.639 1.024-.615 3.824-1.64 4.234-3.893.409-2.254-.751-4.098-1.708-4.782-.956-.682-.615-1.773-4.029-1.979-3.415-.204-6.419.068-8.673-.069-2.254-.136-3.962-.136-4.917-.341-.956-.205-2.869-3.143-5.737-4.579-2.868-1.433-5.19-1.771-5.873-1.773"/></g><g transform="translate(139.99,275.7)"><path fill="#82b9cd" d="m0 0c.12846 5.2654-5.6386 16.936 3.3479 16.877 3.7026-3.907 9.7522-3.3889 7.4356 3.277-2.7385 6.6695-9.445 2.3388-13.363-.4286-5.2473-3.3264-13.25 2.2825-11.401 8.2666 1.9855 5.9313 13.687-4.2444 9.4629 4.4884-2.6051 5.0677-11.416 1.0862-12.364 7.3806-3.3451 6.8902 4.8615 12.071 10.754 8.521 10.102-5.061 20.747-13.289 22.054-25.365.971-6.965-1.178-15.399-8.4673-18.043-2.8912-.9104-4.7321-3.6879-7.4588-4.9734z"/></g><g transform="translate(123.53,291.95)"><path fill="#82b9cd" d="m0 0c-1.721.858-2.323.887-3.756 1.366-1.435.478-2.869 1.64-2.05 2.391.82.751 4.303.272 5.873.203 1.571-.068 3.074-.750 3.074-2.185s-1.775-2.458-3.141-1.775"/></g><g transform="translate(169.22,221.47)"><path fill="#82b9cd" d="m0 0s-2.458 0-3.55-.684c-1.094-.682-2.117.820-2.869 1.298-.751.478-2.049 3.553-1.981 4.986.069 1.434.888 3.21 2.664 3.347 1.776.136 2.937-1.913 3.415-2.936.477-1.026.956-1.026 1.229-2.459.273-1.435.751-3.28 1.092-3.552"/></g><g transform="translate(152.76,226.73)"><path fill="#82b9cd" d="m0 0s.478 1.298.341 2.253c-.136.956.888 1.57 1.024 2.937.137 1.365-.341 1.844-.341 1.844s1.298 1.982 2.937 3.484c1.639 1.503 4.029 3.755 5.122 2.798 1.093-.954-1.025-8.398-3.209-10.378-2.186-1.982-3.689-2.801-5.874-2.938"/></g><g transform="translate(177.34,234.04)"><path fill="#82b9cd" d="m0 0c-.656-1.073-4.029-.82-5.941-.955-1.913-.137-4.098-.479-4.098.341 0 .819 1.845 3.21 2.254 4.302.41 1.091 2.184 1.913 4.165 1.162 1.981-.752 4.372-3.621 3.62-4.85"/></g><g transform="translate(198.58,212.53)"><path fill="#82b9cd" d="m0 0h-10.175c-1.7235 2.5975-8.6293.46958-2.8294 4.0421 4.0068 3.8666.13842 8.652-4.2705 6.536-3.2176 2.6687-15.34 1.1707-8.92 7.2468 4.7056 1.1755 10.426 1.3341 8.6342 8.1949-.76587 6.4056 5.2972 3.9578 7.2487.29254 5.4703-2.227 6.3508-7.4097 5.2974-12.375 4.2739-2.5316 3.5071 12.664 7.0749 7.0222 1.5968-6.2784-10.455-9.9074-3.4728-15.838.9871-1.4763 2.0589-3.2856 1.4128-5.1226z"/></g><g transform="translate(173.25,218.13)"><path fill="#82b9cd" d="m0 0s.342-2.458-.477-3.348c-.82-.886-1.367-1.98-2.391-1.842-1.025.134-2.049.613-1.025 1.434 1.025.818 3.074 1.363 3.279 2.184.205.820.273 1.229.614 1.572"/></g><g transform="translate(191.75,226.39)"><path fill="#507398" d="m0 0s-1.707.001-3.278-.341c-1.57-.342-5.122-.274-6.624 1.775s-1.912 3.074-1.912 3.074 1.366.614 1.366 1.775c0 1.162.204 2.528 1.57 2.596s1.298-1.434 1.093-2.185c-.205-.752-.069-1.912.887-1.912.957 0 1.436 1.843 1.503 2.799.068.957 2.526-1.638 4.029-1.98 1.503-.341 3.894-1.433 3.962-1.981.068-.547-.410-3.074-2.596-3.62"/></g><g transform="translate(194.14,229.94)"><path fill="#14273b" d="m0 0s-.41-1.161-2.185-1.093-2.595-.477-3.21.204c-.614.684-2.732 3.895-3.96 4.032-1.23.134-3.346.817-3.346 1.295-.0010.479.682 2.937-.07 4.304-.75 1.364-.683 1.707.069 2.185.751.478 3.893 1.161 4.712.206.82-.957.888-3.143 3.415-4.031 2.527-.887 4.986-3.62 4.781-7.034"/></g><g transform="translate(211.17,212.46)"><path fill="#82b9cd" d="m0 0h-8.554s.513.82.564 1.332c.051.513.513.769 1.69.921 1.178.155 3.227.924 4.2.103.974-.820 2.1-2.356 2.1-2.356"/></g><g transform="translate(223.61,212.46)"><path fill="#82b9cd" d="m0 0h-6.658s.718 1.947 3.022 1.947c2.305 0 3.636-1.947 3.636-1.947"/></g><g transform="translate(257.06,212.51)"><path fill="#82b9cd" d="m0 0h-25.969s-.052 2.357 1.075 2.357 2.817-1.895 3.381-1.946c.563-.052.46 1.485.973 2.867.513 1.383 1.127 2.868 3.022 2.459s3.176-1.332 3.944-2.305 1.947-1.997 1.947-1.997-.513 3.482 1.332 3.944c1.843.461 3.585-.153 4.968-.666 1.382-.512 3.226-1.384 4.148-2.766.922-1.383 1.179-1.947 1.179-1.947"/></g><g transform="translate(226.94,213.03)"><path fill="#82b9cd" d="m0 0c-1.076 0-3.278 2.51-4.405 3.688-1.127 1.177-1.742 2.868-3.124 2.508-1.384-.357-4.867-2.202-5.993-1.433-1.127.768-2.51 2.816-1.486 4.354 1.025 1.536 2.356 2.253 4.15 1.536 1.792-.716 2.56-2.459 3.84-2.1 1.281.358 2.254 2.254 4.917 2.92 2.664.665 6.455-.462 6.403-4.098-.051-3.637-1.639-3.585-2.099-5.071-.462-1.486-1.435-2.304-2.203-2.304"/></g><g transform="translate(199.39,220.45)"><path fill="#507398" d="m0 0c-.544.104.205 2.05.717 3.228s.870 2.714 1.793 4.301c.922 1.588 3.227 1.793 4.66 1.64 1.435-.153 2.05-1.076 1.896-2.459s-2.714-4.148-4.302-5.071c-1.588-.921-3.688-1.844-4.764-1.639"/></g><g transform="translate(216.8,231.93)"><path fill="#14273b" d="m0 0c-.603-.964-3.073-1.127-3.893-.871-.819.257-.666.922-1.587 1.588-.922.666-2.356 1.895-2.254 3.79.103 1.896 2.049 3.073 4.456 2.357 2.407-.718 3.688-2.305 3.637-3.79s.154-2.256-.359-3.074"/></g><g transform="translate(269.61,233)"><path fill="#82b9cd" d="m0 0c-2.9348-1.2049-7.7448 5.1002-4.865 5.993 2.8401.4223 4.1849-1.6271 5.685-3.431.922-1.127 2.1-2.562-.820-2.562"/></g><g transform="translate(256.24,247.6)"><path fill="#82b9cd" d="m0 0c-4.2272.44213-6.8523 4.3958-9.3654 7.3629 3.4661 1.0182 5.4839 7.7596 8.7998 6.326 3.2014-2.108 6.4698-5.2062 6.7232-9.2551-.1294-3.0112-3.3127-5.0837-6.1576-4.4339z"/></g><g transform="translate(249.05,224.75)"><path fill="#82b9cd" d="m0 0c-5.3734 3.9785-9.7058 9.8947-11.747 15.777-8.8535 18.74-.0172 18.697-8.127 5.738-.751-.684-2.868-1.026-2.322-.07 3.0129 13.886-11.944 2.6451-14.409 9.015-.274.683-.343 1.229.136 1.297 17.979 6.3965 3.4729 6.6228 6.624 15.026.82.887 3.347 1.365 4.508-.137 8.899-13.934.96173 3.2507 6.487 6.693 3.3326.56903 7.87-2.5479 7.581-6.147-6.0289-4.9607 4.1126-4.9618 4.303-10.79.85924-1.7531-2.6235-7.3773-3.074-5.669-2.831-13.223 9.764-22.85 10.04-30.733"/></g><g transform="translate(244.07,261.9)"><path fill="#82b9cd" d="m0 0c-2.5394.30893-1.9502 8.3735-1.435 8.47 3.0166.2002 5.65-1.4126 5.669-3.962-.3719-2.5635-2.2837-3.9163-4.234-4.508"/></g><g transform="translate(242.15,271.53)"><path fill="#82b9cd" d="m0 0c-2.9186.22805-5.1438 9.1467-4.098 8.946 1.775-.546 5.258-2.936 5.394-4.849.138-1.911-.067-3.413-1.296-4.097"/></g><g transform="translate(176.32,246.95)"><path fill="#82b9cd" d="m0 0c-4.8004-4.9055-10.67.8564-15.518 2.2838-5.0372-.96155-14.583.64617-10.656 7.8179 2.8208 4.864 12.099 8.3687 13.697.62931.88253-3.32 5.1638-7.1693 4.6729-1.3812 2.0959 5.5339 10.292 6.1426 11.604.26816 6.583.22244-.3012 12.911 6.3638 12.837 2.8272-2.7621 7.0667-7.1442 7.1772-.4034 3.5072 9.8394-9.1514-.19274-10.483 7.9321-1.4296 5.558-1.0052 12.971 4.1159 16.632 4.4807 5.1012 10.537 5.3203 14.035-1.2406 5.3111.17989 13.282-2.1937 9.6572-9.5844-1.2617-3.3772-11.835-12.035-2.962-8.5373 6.2334 2.9307 4.1771-4.6792-.45308-5.0197-8.8951-3.1004-7.4804-14.942-15.219-18.323-5.2165-1.8355-11.717.28783-16.032-3.911z"/></g><g transform="translate(223.17,278.02)"><path fill="#82b9cd" d="m0 0c-2.8668 2.1001-4.9478 3.6896-8.674 2.733.88834 2.3282-.95019 9.8641 2.595 9.97 5.8625-1.4778 5.4391-9.9311 7.308-8.878 4.933 4.9906-2.7391 8.9291-1.366 13.249.683 1.639 3.141 2.323 5.19 1.434 2.049-.888 4.371-5.396 4.371-5.396-3.0524-4.4184-5.2127-9.6242-9.424-13.112"/></g><g transform="translate(234.23,293.25)"><path fill="#82b9cd" d="m0 0c-1.3239 6.8298-8.5005 9.5608-13.767 12.801-2.6871 14.274 9.727 2.3479 13.805 1.4141 1.7968 2.6372-2.3795 9.8054 3.9146 9.6602 1.5044-1.0094 5.4932-7.4881 5.213-2.0544-.23968 3.7655-4.1763 7.9765-1.3206 11.414 3.5633.3612 15.302-15.214 11.853-6.8031-3.6693 5.3397 4.257 9.2282 7.4113 4.4801 2.566-23.393-8.889-24.753-11.022-27.335-3.625-3.8011-5.979 1.8269-4.954 5.057-4.8041 5.661-6.2967-6.2572-11.132-8.6333z"/></g><g transform="translate(279.44,297.86)"><path fill="#82b9cd" d="m-6.023 10.137c.346 3.4898-.67042 7.0861-4.112 8.371-2.783.03879-2.7768 5.2254-.808 4.335 1.027-.516 1.909-.956 1.909 0 0 .954-1.542 3.231-1.395 4.627 8.09-2.965 13.055-16.355 17.187-24.312.440-.882.146-1.322-.442-1.248"/></g><g transform="translate(244.19,329.96)"><path fill="#82b9cd" d="m0 0c-3.4083-1.5371-2.8287-.91268-4.627-3.231-.734-.881-1.763-.956-1.836.661-.074 1.615-.661 2.791.147 4.259 2.1689 2.3677 4.9561.0075 6.316-1.689"/></g><g transform="translate(233.96,325.97)"><path fill="#82b9cd" d="m0 0c-5.4229 1.7929-9.9575-2.4104-13.445-5.9439-5.9724-5.6697-12.403-11.037-20.116-14.146-4.198-3.8827-10.742-3.7542-11.551 2.5341-3.2979 1.918-5.1051 7.7566.61148 6.2421 3.0696 2.5761 5.1564 3.051 8.1592-.16282-.12359 3.2439 1.8311 10.471 7.0909 7.5034.77958-1.9316 1.7247-9.4282 4.0179-4.2878-3.283 4.6273 4.5821 9.2677.40931 13.287 4.1947 5.3981 9.787-4.6172 7.1058-8.8797 3.0867 2.1075 15.402 19.255 17.277 5.0837z"/></g><g transform="translate(221.12,332.32)"><path fill="#82b9cd" d="m0 0c-1.3594.2608-1.4114 1.9332-1.5767 3.0346-.11988 1.5367-.19213 3.1472.28584 4.6274 1.0078 1.6586 3.5953 1.1943 4.6799-.14782.93529-1.0556.69657-2.5419.68308-3.8374-.047327-1.512-1.0195-2.9625-2.52-3.3598-.5018-.16957-1.0262-.26307-1.5522-.31692z"/></g><g transform="translate(172.5,301.72)"><path fill="#82b9cd" d="m0 0c-5.1188-1.8071-11.812 2.3361-11.071 8.0999.46786 5.3804 10.305 4.3096 7.2161-1.2327-.69023-4.024 3.8267-2.5981 3.5292.45905.70671 5.0281 7.2433 3.7753 6.4602-1.1214-.1996-3.156-2.9482-6.0282-6.1347-6.2048z"/></g><g transform="translate(177.69,314.97)"><path fill="#82b9cd" d="m0 0c-1.018-.108-2.526-.068-2.526 1.98s.546 5.123 2.321 5.327c1.776.205 3.074-1.5 2.801-3.413-.274-1.914-.684-3.689-2.596-3.894"/></g><g transform="translate(187.72,319.41)"><path fill="#82b9cd" d="m0 0c-2.6236.79084-6.5327.017973-6.5171 3.6402-4.0598 2.2467-2.2995 10.492 2.4046 6.1907 4.8098-3.1391 1.3119 7.2154 6.6801 4.0449 4.0226-2.77 0.45-7.9908-.6463-11.511-.4963-.8911-1.1273-1.718-1.9212-2.3646z"/></g><g transform="translate(205.89,325.35)"><path fill="#82b9cd" d="m0 0c-2.7961-.84483-5.5105 1.0732-7.3885 2.9502-1.9862 2.2579-.2499 6.688 3.0305 5.8745 2.8323-.5062 3.5422-3.5325 4.3606-5.8342.28312-.9672.37371-2.0343-.0025348-2.9906z"/></g><g transform="translate(218.32,346.39)"><path fill="#82b9cd" d="m0 0c-4.3394-.49929-4.1414 7.9761.33667 6.3329 2.1904 3.8221 6.3276-.4282 4.0201-3.4079-.6591-1.732-2.3889-3.2959-4.3567-2.925z"/></g><g transform="translate(311.95,328.49)"><path fill="#82b9cd" d="m0 0c-5.8749-2.7346-13.005 1.9714-14.273 7.9801-3.497 6.3098 7.265 8.3865 9.4135 2.8091 2.6404-2.691 6.3261-6.8036 4.859-10.789z"/></g><g transform="translate(307.92,308)"><path fill="#82b9cd" d="m-13.767 3.6308c-6.7645 21.557 6.6597.73781 7.1025 1.5331-1.9096 4.9258-1.4431 11.779-7.5221 13.667 12.291 13.958 14.242-45.28.41969-15.2z"/></g><g transform="translate(286.89,330.54)"><path fill="#82b9cd" d="m0 0c-7.8943 2.7697-30.211 32.068-26.463 38.194 4.527-7.743 28.619-31.41 26.463-38.194z"/></g><g transform="translate(103.81,403.37)"><path fill="#fff" d="m0 0c.075.503.707 1.337 1.101.536.055-.103.172-.352.189-.455.057-.372-.343-.660-.707-.684-.438-.026-.644.214-.583.603"/></g><g transform="translate(312.15,483.55)"><path fill="#fff" d="m0 0c.4-.135.497-.716.175-1.006-.374-.335-.844.122-.833.546.011.398.299.581.658.460"/></g><g transform="translate(92.728,251.87)"><path fill="#fff" d="m0 0c-.197-.541-.543-.939-.729-.668-.184.272-.242.49-.034.988.207.495.511.757.714.673.203-.087.231-.484.049-.993"/></g></g></svg>
